<svg xmlns="http://www.w3.org/2000/svg" width="389" height="482" fill="none"><g clip-path="url(#a)"><mask id="b" width="536" height="529" x="0" y="0" maskUnits="userSpaceOnUse" style="mask-type:luminance"><path fill="#fff" d="M536 0H0v529h536V0Z"/></mask><g stroke="#F5CC82" stroke-miterlimit="10" stroke-opacity=".4" stroke-width="1.701" mask="url(#b)"><path d="M520.055 241.425c0 1.182-.78 2.345-.793 3.527-.022 1.182.645 2.364.606 3.546-.035 1.181.993 2.401.941 3.578-.052 1.182-.288 2.359-.353 3.536-.074 1.182.244 2.393.152 3.57-.091 1.182.292 2.411.183 3.583-.104 1.178-.941 2.298-1.067 3.47-.127 1.177-.554 2.321-.697 3.493-.149 1.172-1.552 2.178-1.709 3.346-.165 1.172 1.447 2.592 1.268 3.76-.178 1.167-.392 2.34-.588 3.507-.196 1.168-.95 2.24-1.168 3.398-.218 1.163-.008 2.411-.244 3.565-.235 1.158-1.29 2.149-1.538 3.302-.253 1.153-.401 2.331-.671 3.479-.27 1.153.889 2.65.597 3.794-.288 1.148-1.107 2.173-1.412 3.316-.301 1.144-1.429 2.069-1.752 3.203-.322 1.139-.475 2.326-.815 3.455-.344 1.134-1.595 1.982-1.952 3.107-.357 1.129-.824 2.207-1.203 3.327-.374 1.12.083 2.516-.305 3.626-.396 1.115.327 2.636-.083 3.741-.409 1.11-2 1.792-2.431 2.893-.427 1.101.449 2.721.004 3.817-.44 1.096-3.373 1.182-3.835 2.268-.461 1.092-.514 2.336-.993 3.417-.475 1.082.37 2.75-.122 3.827-.497 1.077-2.475 1.463-2.985 2.531-.514 1.067-.079 2.578-.61 3.636-.528 1.058-.989 2.154-1.53 3.203-.545 1.053-1.734 1.768-2.292 2.811-.558 1.044-.736 2.283-1.316 3.317-.58 1.034-1.238 2.016-1.83 3.04-.593 1.025-1.456 1.888-2.066 2.903-.606 1.015-.658 2.359-1.281 3.364-.627 1.006-2.497 1.23-3.138 2.226-.64.996-.313 2.597-.967 3.583-.658.987-.593 2.45-1.264 3.427-.671.977-1.12 2.12-1.804 3.088-.684.967-1.8 1.639-2.501 2.597-.697.958-2.044 1.444-2.754 2.392-.715.944-.728 2.421-1.46 3.356-.728.934-2.14 1.344-2.88 2.263-.741.925-1.726 1.644-2.484 2.559-.754.911-1.26 2.026-2.031 2.926-.771.901-1.264 2.035-2.048 2.927-.789.891-1.966 1.434-2.759 2.311-.801.877-.531 2.726-1.342 3.588-.806.867-2.981.462-3.804 1.316-.828.852-.087 3.211-.928 4.051-.837.838-2.68.704-3.53 1.529-.845.829-.789 2.597-1.652 3.412-.862.815-1.856 1.516-2.732 2.321-.876.801-2.893.372-3.782 1.158-.889.791-.51 3.007-1.404 3.779-.902.777-3.137.014-4.048.777s-1.949 1.358-2.874 2.107c-.921.748-1.384 2.054-2.314 2.787-.935.734-1.648 1.749-2.593 2.469-.945.719-2.222 1.005-3.177 1.716-.954.705-1.754 1.615-2.723 2.306-.969.692-1.682 1.741-2.656 2.416-.978.676-1.918 1.415-2.907 2.078-.988.662-2.65.318-3.648.967-.998.65-1.306 2.349-2.314 2.981-1.007.632-1.634 1.896-2.651 2.516-1.017.615-2.632.275-3.658.877-1.027.598-2.729.03-3.765.619-1.036.585-1.894 1.445-2.94 2.013-1.046.572-1.822 1.609-2.878 2.159-1.051.555-1.962 1.376-3.027 1.918-1.06.538-1.711 1.901-2.781 2.426-1.07.516-2.107 1.148-3.186 1.652-1.08.507-3.157-1.123-4.247-.633-1.084.491-1.417 2.628-2.511 3.101-1.094.473-2.227.869-3.331 1.325-1.099.46-2.284.727-3.393 1.165-1.109.439-2.058 1.286-3.176 1.708-1.114.426-2.174 1.032-3.293 1.436-1.118.405-2.79-.701-3.918-.314-1.128.387-2.439.185-3.577.555-1.132.374-2.231.787-3.369 1.144-1.138.353-1.918 1.828-3.065 2.163-1.143.34-2.656-.628-3.804-.309-1.147.322-2.019 1.587-3.171 1.888-1.152.301-2.184 1.058-3.345 1.346-1.157.284-2.107 1.462-3.268 1.729-1.162.267-2.56-.482-3.731-.232-1.167.245-2.328.516-3.5.748-1.171.228-2.323.55-3.499.766-1.171.215-2.53-.654-3.711-.456-1.176.193-2.242 1.028-3.423 1.204-1.181.176-2.28.903-3.466 1.066-1.181.164-2.39.117-3.576.259-1.181.141-2.506-1.015-3.697-.886-1.186.124-2.323.58-3.514.683-1.185.108-2.338.559-3.528.646-1.191.09-2.318 1.049-3.514 1.118-1.191.073-2.366.546-3.562.598-1.191.051-2.386.533-3.581.572-1.191.034-2.415-.555-3.611-.534-1.195.017-2.405-1.888-3.605-1.888-1.195 0-2.41 2.637-3.605 2.619-1.196-.017-2.367-1.501-3.562-1.531-1.196-.034-2.372-.434-3.562-.486-1.196-.056-2.43.693-3.62.624-1.196-.073-2.473.89-3.664.804-1.195-.09-2.405-.172-3.596-.275-1.19-.108-2.39-.34-3.576-.465-1.19-.124-2.227-1.634-3.413-1.776-1.186-.142-2.526.83-3.706.667-1.186-.164-2.439.03-3.615-.151-1.181-.176-1.981-2.739-3.157-2.937-1.181-.194-2.618 1.097-3.794.882-1.176-.216-2.198-1.209-3.369-1.446-1.172-.232-2.594.71-3.76.465-1.166-.25-2.169-1.269-3.331-1.535-1.166-.267-2.043-1.669-3.205-1.953-1.162-.288-2.815 1.342-3.967 1.041-1.157-.297-1.846-2.293-2.993-2.611-1.152-.318-2.487.026-3.63-.309-1.147-.34-2.443-.181-3.581-.534-1.142-.352-2.145-1.135-3.278-1.505-1.133-.374-2.029-1.415-3.157-1.802-1.128-.392-2.439-.258-3.557-.662-1.123-.405-1.894-1.712-3.008-2.129-1.113-.426-2.81.632-3.919.193-1.108-.438-2.053-1.29-3.152-1.742-1.104-.46-1.962-1.466-3.056-1.939-1.094-.473-1.846-1.673-2.935-2.159-1.09-.491-2.579-.091-3.659-.598-1.08-.503-2.342-.637-3.413-1.157-1.069-.525-2.438-.482-3.499-1.019-1.065-.538-1.403-2.448-2.458-2.998-1.056-.555-2.116-1.067-3.162-1.639-1.046-.572-2.772.056-3.808-.529-1.036-.589-1.87-1.535-2.897-2.137-1.027-.598-2.584-.357-3.605-.972-1.017-.619-1.952-1.406-2.96-2.034-1.007-.633-1.219-2.499-2.217-3.144-.998-.65-2.612-.392-3.601-1.054-.988-.662-1.036-2.671-2.014-3.346-.979-.675-2.464-.632-3.432-1.33-.969-.691-2.092-1.177-3.047-1.882-.954-.706-1.73-1.654-2.675-2.373-.944-.72-1.812-1.535-2.747-2.269-.935-.734-1.948-1.368-2.873-2.116-.921-.748-2.603-.61-3.514-1.373-.911-.762-1.027-2.449-1.928-3.226-.901-.777-2.478-.805-3.364-1.597-.887-.79-.656-2.797-1.528-3.597-.877-.801-2.126-1.201-2.989-2.021-.863-.815-1.677-1.673-2.53-2.502-.854-.829-2.309-1.063-3.148-1.901-.839-.839-1.865-1.521-2.689-2.373-.825-.854-.14-3.108-.95-3.975-.81-.867-1.533-1.787-2.333-2.664-.8-.877-2.728-.758-3.514-1.644-.785-.892-1.19-2.102-1.957-3.003-.771-.9-.752-2.44-1.508-3.354-.757-.911-2.84-.758-3.582-1.683-.742-.924-1.528-1.825-2.256-2.759-.727-.934-1.62-1.763-2.333-2.707-.713-.943-1.764-1.663-2.463-2.621-.699-.958-.704-2.412-1.388-3.379-.684-.967-1.995-1.52-2.665-2.497-.67-.977-1.557-1.835-2.208-2.821-.655-.987-.159-2.717-.8-3.713s-1.287-1.987-1.914-2.992c-.621-1.006-.978-2.169-1.586-3.184-.607-1.015-.67-2.335-1.263-3.359-.592-1.025-3.012-1.035-3.585-2.069-.579-1.034-.665-2.345-1.225-3.384-.56-1.038-1.21-2.048-1.754-3.097-.545-1.049-.265-2.512-.796-3.574-.525-1.058-.197-2.516-.708-3.584-.511-1.067-.8-2.211-1.297-3.288-.496-1.072-2.93-1.287-3.408-2.369-.477-1.081.444-2.754-.02-3.846-.461-1.086-2.356-1.596-2.8-2.692-.443-1.096-.37-2.402-.8-3.503-.429-1.101-1.137-2.106-1.547-3.212-.41-1.105.79-2.778.395-3.893-.39-1.115-2.544-1.635-2.92-2.755-.377-1.12-.492-2.33-.849-3.46-.357-1.125-.303-2.378-.646-3.512-.342-1.129-.646-2.268-.969-3.407-.322-1.135.478-2.564.17-3.703-.305-1.139-2.657-1.759-2.946-2.907-.29-1.144.395-2.526.125-3.679-.27-1.149-1.494-2.092-1.745-3.25-.25-1.153 1.461-2.712 1.225-3.87-.231-1.158-.858-2.226-1.075-3.388-.217-1.158-2.241-2.012-2.444-3.174-.197-1.163.906-2.545.728-3.712-.178-1.168.607-2.464.448-3.637-.164-1.168-2.487-2.059-2.632-3.231-.144-1.167 1.65-2.564 1.524-3.736-.126-1.173-1.147-2.254-1.254-3.431-.106-1.173 1.1-2.45 1.013-3.632-.092-1.177-2.213-2.216-2.28-3.398-.073-1.177 1.89-2.459 1.836-3.641-.053-1.177-2.169-2.282-2.208-3.464-.033-1.177-.183-2.374-.202-3.555-.019-1.182 2.44-2.383 2.44-3.57 0-1.182-1.027-2.359-1.008-3.541.019-1.181.819-2.334.858-3.516.033-1.182-.092-2.355-.04-3.532.054-1.182-1.136-2.421-1.064-3.598.072-1.182-.714-2.43-.622-3.607.091-1.182 1.943-2.217 2.053-3.394.106-1.177.83-2.282.955-3.455.125-1.177-1.75-2.573-1.605-3.746.145-1.171 2.25-2.091 2.414-3.259.164-1.172.314-2.326.492-3.493.179-1.168-.202-2.412 0-3.574.198-1.168.106-2.374.323-3.536.217-1.163.02-2.402.25-3.561.237-1.157 1.717-2.053 1.968-3.207.25-1.153-.56-2.535-.29-3.683.27-1.154.03-2.426.318-3.57.29-1.148.795-2.245 1.1-3.383.303-1.144 1.763-1.968 2.087-3.103.323-1.139-.57-2.616-.227-3.75.342-1.134-.154-2.531.202-3.656.357-1.129.926-2.206 1.302-3.326s2.511-1.654 2.901-2.769c.395-1.115.612-2.283 1.022-3.388.41-1.11-.328-2.645.097-3.746.429-1.101.896-2.197 1.345-3.293.443-1.096.284-2.454.747-3.541.462-1.091 2.424-1.553 2.901-2.635.478-1.082 1.543-1.897 2.035-2.974.496-1.077-1.042-3.088-.53-4.155.51-1.068 1.05-2.145 1.575-3.203.53-1.058 2.386-1.468 2.931-2.516.545-1.054 1.904-1.673 2.463-2.712.56-1.043.405-2.459.983-3.493.579-1.034.95-2.178 1.543-3.202.593-1.025.299-2.569.906-3.584.607-1.015 1.027-2.169 1.649-3.174.626-1.006 1.629-1.797 2.265-2.793.64-.996 2.29-1.353 2.945-2.339.656-.987 1.45-1.873 2.12-2.851.67-.976 1.423-1.887 2.107-2.854.685-.967.723-2.387 1.422-3.341.7-.958 1.514-1.83 2.232-2.778.713-.944 1.142-2.111 1.87-3.045.728-.934 1.379-1.94 2.121-2.865.742-.924 2.752-.834 3.509-1.743.757-.911 1.171-2.093 1.942-2.993.772-.901 1.109-2.164 1.89-3.055.786-.892.993-2.287 1.793-3.165.8-.876 1.229-2.106 2.039-2.974.81-.867 3.027-.428 3.856-1.281.824-.853.342-2.969 1.181-3.808s2.834-.543 3.687-1.372c.849-.83 1.673-1.678 2.536-2.493.862-.815.804-2.602 1.682-3.407.877-.8 2.429-.877 3.321-1.668.887-.791 1.721-1.635 2.622-2.412.901-.776 2.555-.667 3.471-1.43.91-.762.496-3.097 1.422-3.845.92-.748 1.971-1.363 2.906-2.097s3.085.071 4.029-.648c.945-.72.878-2.754 1.832-3.46.955-.705 1.692-1.725 2.661-2.416.969-.691 1.899-1.454 2.878-2.13.978-.677 1.74-1.692 2.728-2.35.988-.662 2.67-.314 3.668-.962.997-.648 2.376-.706 3.384-1.34 1.007-.633 1.185-2.587 2.202-3.202 1.017-.615 2.3-.824 3.326-1.425 1.027-.6 2.772.02 3.808-.567 1.036-.586 1.74-1.735 2.786-2.306 1.046-.572 2.449-.463 3.504-1.016 1.051-.552 1.35-2.535 2.41-3.073 1.061-.539 3.022.705 4.097.185 1.071-.519 1.731-1.849 2.811-2.354 1.079-.505 1.412-2.611 2.496-3.102 1.085-.491 2.714.195 3.808-.277 1.094-.471 2.463-.3 3.562-.757 1.099-.458 1.596-2.383 2.704-2.822 1.109-.438 2.777.525 3.89.1 1.114-.424 1.841-1.868 2.965-2.273 1.118-.405 2.135-1.143 3.263-1.534 1.128-.386 2.487-.129 3.62-.5 1.132-.372 2.019-1.526 3.162-1.878 1.137-.353 2.983 1.587 4.13 1.248 1.143-.338 2.29-.586 3.437-.905 1.147-.32 2.063-1.434 3.215-1.735 1.152-.3 1.938-2.04 3.095-2.32 1.156-.287 2.791 1.405 3.957 1.138 1.161-.267 2.15-1.258 3.316-1.51 1.167-.248 2.275-.763 3.446-.992 1.172-.228 2.497.377 3.674.163 1.171-.215 2.419.07 3.595-.124 1.176-.196 2.039-2.293 3.22-2.469 1.181-.176 2.328-.653 3.514-.815 1.181-.162 2.526.891 3.712.748 1.18-.143 2.183-1.935 3.373-2.063 1.186-.124 2.439.257 3.63.147 1.186-.104 2.372-.476 3.562-.562 1.191-.09 2.487 1.273 3.683 1.201 1.19-.071 2.371-.233 3.566-.286 1.191-.052 2.362-.777 3.563-.81 1.19-.033 2.4.224 3.595.205 1.196-.02 2.401.753 3.601.753 1.195 0 2.381.071 3.576.09 1.196.02 2.416-1.105 3.611-1.067 1.195.033 2.347 1.225 3.538 1.277 1.195.052 2.342.739 3.533.81 1.195.072 2.54-2.092 3.726-2.006 1.195.09 2.424-.072 3.61.033 1.19.105 2.381.415 3.567.539 1.19.124 2.207 1.763 3.393 1.906 1.186.143 2.478-.524 3.659-.362 1.186.162 2.511-.563 3.687-.381 1.181.176 2.121 1.896 3.297 2.092 1.181.195 2.184 1.31 3.355 1.52 1.176.214 2.617-.996 3.789-.763 1.17.234 2.183 1.216 3.349 1.468 1.167.248 2.666-.934 3.828-.667 1.166.267 2.164 1.24 3.326 1.525 1.161.286 2.51-.143 3.667.162 1.157.3 2.382.405 3.534.725 1.151.319 2.294.72 3.436 1.057 1.148.339 1.63 2.812 2.767 3.165 1.143.352 2.468.095 3.601.467 1.132.372 2.246.777 3.374 1.167 1.128.391 2.472.172 3.591.577 1.123.405 2.053 1.315 3.166 1.735 1.114.424 2.724-.386 3.833.052 1.108.439 1.754 2.011 2.853 2.469 1.104.457 2.044 1.272 3.138 1.744 1.094.472 1.995 1.349 3.08 1.84 1.089.49 2.694-.139 3.774.366 1.08.506 2.102 1.135 3.172 1.654 1.07.524 2.747-.12 3.808.42 1.065.538 1.306 2.644 2.362 3.202 1.055.553 2.009 1.272 3.056 1.844 1.045.572 2.964-.386 4 .2 1.036.586 1.485 2.192 2.511 2.793 1.027.6 1.297 2.43 2.314 3.05 1.017.62 2.656.229 3.663.862 1.008.634 2.449.606 3.446 1.254.998.648 1.596 1.901 2.584 2.564.988.662 2.545.515 3.524 1.196.978.677 2.14 1.13 3.104 1.82.969.692.617 3.16 1.571 3.865.955.706 2.444.71 3.389 1.43.945.72 1.745 1.62 2.68 2.354s1.836 1.497 2.762 2.245c.92.748 1.986 1.325 2.897 2.087.91.763 2.322.953 3.224 1.73.902.777 2.11 1.22 2.999 2.011.884.791.784 2.66 1.655 3.46.881.8 1.591 1.758 2.454 2.573.863.815 2.484.858 3.334 1.687.845.83 1.342 2.011 2.183 2.855.836.839 1.259 2.073 2.083 2.926.823.853 2.161 1.225 2.972 2.092.81.868 2.052 1.353 2.85 2.23.797.877.274 2.907 1.059 3.798.784.892 2.841.696 3.612 1.597.771.9 1.931 1.497 2.689 2.412.758.91-.314 3.283.427 4.203.745.924 2.013 1.425 2.741 2.359.728.934 1.826 1.587 2.536 2.535.715.944 2.279 1.287 2.976 2.24.698.958-.313 3.117.371 4.084.684.968 1.359 1.921 2.031 2.897.671.977 2.767 1.006 3.42 1.997.658.987.828 2.288 1.465 3.284.645.996.117 2.702.74 3.707.619 1.006 2.641 1.173 3.247 2.188.61 1.015 2.07 1.553 2.662 2.578.593 1.024-1.189 3.369-.618 4.404.579 1.033 3.364.881 3.926 1.92.558 1.039-.859 3.107-.314 4.155.545 1.049 1.909 1.683 2.436 2.741.527 1.058 1.347 1.977 1.857 3.045.509 1.068.209 2.502.701 3.579.493 1.072 1.194 2.049 1.669 3.131.48 1.082 1.83 1.792 2.292 2.883.462 1.087.179 2.478.619 3.574.445 1.096.924 2.173 1.347 3.279.427 1.101 2.331 1.663 2.749 2.774.41 1.105.175 2.459.567 3.574.392 1.115-.31 2.597.07 3.717.374 1.12.052 2.45.409 3.579.353 1.125 2.898 1.587 3.242 2.721.34 1.129-1.586 2.907-1.263 4.041.322 1.135 1.006 2.154 1.311 3.298.305 1.139.881 2.202 1.173 3.346.287 1.143-.127 2.439.143 3.588.271 1.148.937 2.192 1.186 3.35.252 1.154.274 2.34.509 3.498.231 1.158 1.887 2.04 2.105 3.203.214 1.158.833 2.259 1.029 3.426.2 1.163-.467 2.469-.284 3.636.179 1.168.672 2.292.833 3.46.165 1.168.083 2.369.226 3.541.149 1.168-.209 2.392-.087 3.569.127 1.173 1.783 2.202 1.891 3.379.105 1.172-.81 2.445-.723 3.622.092 1.177.131 2.359.205 3.541.07 1.177-.575 2.387-.523 3.569.052 1.177-.144 2.359-.105 3.541.035 1.177-.13 2.35-.113 3.531.018 1.182.584 2.35.584 3.541Z"/><path d="M288.137 63.455c.444 1.081.95 2.11 1.287 3.216.338 1.115.723 2.202.955 3.336.231 1.14.742 2.24.872 3.393.126 1.153.039 2.33.063 3.493.024 1.154-.347 2.297-.424 3.46-.077 1.153.014 2.312-.159 3.465-.169 1.139-.28 2.297-.54 3.436a50.764 50.764 0 0 1-.863 3.374c-.338 1.1-.414 2.316-.829 3.412-.41 1.077-1.523 1.878-2.01 2.945-.477 1.049-.776 2.178-1.33 3.217-.54 1.015-1.35 1.882-1.962 2.883-.598.986-.781 2.24-1.441 3.207a70.192 70.192 0 0 1-2.054 2.831c-.699.92-1.321 1.925-2.077 2.822-.747.881-1.943 1.386-2.743 2.249-.786.848-1.215 2.044-2.053 2.869-.825.81-1.847 1.444-2.719 2.23-.863.777-2.005 1.234-2.911 1.983-.897.738-1.697 1.591-2.637 2.301a87.964 87.964 0 0 1-2.829 2.059c-.95.662-1.803 1.482-2.791 2.111-.978.624-2.116 1.006-3.133 1.601-1.008.586-2.049 1.111-3.085 1.663-1.027.549-1.832 1.525-2.887 2.045-1.051.51-2.232.767-3.311 1.244-1.071.472-2.208.786-3.307 1.225-1.094.438-2.217.753-3.316 1.143-1.109.396-2.011 1.392-3.119 1.745-1.123.357-2.275.652-3.398.962-1.138.315-2.381.215-3.514.481-1.147.272-2.256.701-3.403.92-1.162.224-2.323.396-3.475.572-1.167.181-2.338.305-3.495.434-1.176.133-2.357.076-3.518.157-1.181.086-2.338.539-3.505.572a80.453 80.453 0 0 1-3.538.024c-1.18-.019-2.333-.672-3.494-.739-1.181-.071-2.405.477-3.562.348a68.742 68.742 0 0 1-3.5-.467c-1.166-.181-2.251-.791-3.388-1.029-1.157-.244-2.357-.272-3.48-.572-1.143-.305-2.14-1.049-3.244-1.411-1.123-.367-2.458-.143-3.543-.567-1.099-.434-1.866-1.597-2.916-2.092-1.07-.505-2.444-.401-3.461-.963-1.032-.572-1.735-1.658-2.709-2.292-.983-.643-2.246-.896-3.167-1.601-.93-.715-1.865-1.459-2.723-2.235-.868-.787-1.282-2.021-2.073-2.869-.795-.853-1.779-1.535-2.492-2.45-.718-.915-1.696-1.672-2.323-2.649-.627-.972-.935-2.159-1.475-3.193-.535-1.025-1.123-2.045-1.562-3.127a37.794 37.794 0 0 1-1.19-3.293 37.973 37.973 0 0 1-.849-3.393c-.231-1.139-.048-2.34-.173-3.493-.125-1.153-.757-2.283-.781-3.441-.024-1.153.598-2.306.67-3.469.077-1.153.111-2.297.28-3.45.168-1.14.086-2.335.347-3.475.255-1.124.718-2.206 1.055-3.326.338-1.1.795-2.168 1.21-3.264.41-1.077.66-2.23 1.147-3.298.477-1.049 1.066-2.059 1.615-3.097.54-1.016 1.176-1.993 1.788-2.998.598-.987 1.167-2.006 1.827-2.974.651-.953 1.494-1.778 2.203-2.712.699-.92 1.595-1.682 2.352-2.578.747-.881 1.364-1.873 2.164-2.735.786-.849 1.379-1.892 2.213-2.712.824-.81 1.711-1.577 2.588-2.363.863-.778 1.678-1.626 2.584-2.374.896-.739 1.735-1.577 2.675-2.287.925-.7 2-1.23 2.969-1.902.95-.662 1.972-1.239 2.964-1.873.979-.624 2.165-.93 3.181-1.525 1.008-.586 1.774-1.6 2.815-2.159a96.79 96.79 0 0 1 3.134-1.592c1.05-.51 2.188-.867 3.268-1.343 1.07-.472 2.106-1.044 3.205-1.482 1.094-.439 2.275-.634 3.374-1.025 1.109-.395 2.207-.8 3.321-1.153 1.123-.358 2.136-1.087 3.259-1.397 1.137-.314 2.323-.457 3.46-.724 1.147-.271 2.352-.286 3.495-.51 1.162-.224 2.309-.481 3.461-.657 1.166-.181 2.362-.067 3.523-.2 1.176-.134 2.338-.21 3.5-.291 1.161-.067 2.318-.372 3.485-.405 1.185-.034 2.362-.382 3.528-.362 1.181.019 2.352.414 3.514.48 1.181.072 2.39-.228 3.552-.104 1.176.124 2.237 1.03 3.389 1.21 1.166.181 2.328.267 3.465.506 1.157.243 2.396.11 3.519.41 1.142.304 2.13 1.076 3.234 1.439 1.124.367 2.324.48 3.403.91 1.099.434 2.184.877 3.234 1.372 1.071.505 2.015 1.216 3.028 1.778 1.031.572 2.091 1.063 3.061 1.697a45.172 45.172 0 0 1 2.839 2.044c.93.715 1.764 1.52 2.626 2.297.868.786 1.827 1.468 2.622 2.316.796.853 1.225 1.992 1.938 2.907.719.915 1.648 1.658 2.275 2.636.627.972 1.432 1.858 1.972 2.892.53 1.025.53 2.288.973 3.37ZM251.08 35.304c.829-.863 1.721-1.659 2.559-2.507.839-.848 1.663-1.715 2.516-2.554.854-.834 1.731-1.65 2.594-2.474.862-.824 1.764-1.61 2.641-2.42.877-.81 1.678-1.702 2.569-2.503.887-.8 1.822-1.548 2.724-2.335.901-.786 1.822-1.548 2.732-2.32.912-.772 1.871-1.492 2.791-2.25.926-.758 1.837-1.534 2.772-2.278.935-.743 1.86-1.5 2.81-2.23.945-.73 1.856-1.51 2.81-2.23"/><path d="M273.667 470.483c-.921-.753-1.682-1.686-2.589-2.447-.91-.766-1.614-1.751-2.516-2.529-.896-.774-2.733-.508-3.619-1.299-.888-.791-.854-2.576-1.726-3.376-.877-.8-2.709-.598-3.567-1.411-.863-.813-1.557-1.815-2.405-2.64-.854-.822-.921-2.43-1.76-3.269-.838-.839-1.937-1.415-2.766-2.262-.83-.848-2.353-1.054-3.167-1.91-.815-.864-.275-2.959-1.075-3.828-.805-.873-2.709-.756-3.499-1.638-.791-.882-1.172-2.12-1.953-3.015-.776-.89-1.908-1.488-2.675-2.396-.766-.903-1.634-1.733-2.386-2.645-.752-.916-1.793-1.608-2.53-2.533-.743-.924-.453-2.645-1.181-3.581-.728-.934-2.43-1.138-3.143-2.082-.713-.944-.732-2.402-1.436-3.355-.704-.953-.67-2.421-1.359-3.384-.69-.962-2.493-1.153-3.168-2.125-.674-.972-.78-2.326-1.441-3.307-.66-.982-1.368-1.926-2.019-2.917-.651-.986-.747-2.316-1.384-3.312-.636-.996-1.547-1.811-2.173-2.816-.622-1.006-2.039-1.535-2.651-2.546-.608-1.01-1.312-1.977-1.909-2.997-.598-1.02-1.292-1.992-1.875-3.021-.583-1.03-1.388-1.945-1.957-2.979-.569-1.034-.955-2.178-1.509-3.221a376.624 376.624 0 0 1-1.653-3.146c-.545-1.048-.511-2.387-1.041-3.445-.531-1.053-.632-2.316-1.147-3.379-.516-1.063-1.143-2.068-1.649-3.136-.506-1.067-1.702-1.82-2.193-2.892-.492-1.073.145-2.641-.333-3.722-.477-1.078-1.72-1.83-2.188-2.912-.463-1.087-.246-2.45-.699-3.536-.453-1.092-.954-2.154-1.393-3.245-.439-1.097-1.007-2.136-1.432-3.236-.424-1.101-1.99-1.783-2.405-2.888-.409-1.106.019-2.517-.381-3.627-.4-1.11-.54-2.307-.93-3.422-.386-1.115-1.089-2.12-1.465-3.24-.371-1.12-.709-2.25-1.07-3.374-.362-1.125-1.552-1.997-1.899-3.122-.347-1.124.944-2.735.612-3.87-.333-1.129-2.28-1.806-2.603-2.94-.323-1.134-.463-2.326-.767-3.464-.308-1.139-.664-2.274-.963-3.413-.295-1.139 1.084-2.697.804-3.841-.284-1.143-.746-2.235-1.017-3.383-.269-1.149-1.696-2.035-1.951-3.184-.256-1.148-.94-2.216-1.181-3.369-.247-1.153-.391-2.335-.622-3.488-.232-1.154.641-2.526.424-3.684-.217-1.158-1.75-2.083-1.957-3.246-.207-1.158.048-2.406-.145-3.569-.193-1.163.56-2.473.376-3.641-.183-1.163-.689-2.278-.858-3.445-.169-1.168-.458-2.316-.612-3.484-.154-1.168-1.022-2.249-1.166-3.422-.145-1.167.376-2.421.241-3.588-.131-1.173.077-2.378-.044-3.551-.12-1.172-.424-2.325-.53-3.498-.106-1.172-.429-2.33-.525-3.502-.092-1.173.096-2.369.014-3.546-.082-1.177-.829-2.311-.896-3.488-.068-1.177.809-2.402.751-3.579-.057-1.177-.515-2.336-.559-3.513-.043-1.176.212-2.364.184-3.54-.034-1.177.409-2.359.39-3.541-.019-1.177-1.393-2.34-1.403-3.517-.009-1.177.617-2.359.622-3.541.005-1.177.232-2.354.251-3.532.019-1.177.718-2.339.747-3.516.029-1.177-.275-2.359-.236-3.536.043-1.178-.184-2.364-.126-3.541.053-1.177-.728-2.398-.665-3.575.068-1.177.554-2.33.636-3.507.077-1.177 1.032-2.288 1.124-3.46.091-1.177-.338-2.387-.236-3.56.105-1.172-.044-2.373.071-3.545.116-1.173.159-2.355.29-3.527.13-1.172-.54-2.44-.395-3.608.139-1.172 2.077-2.12 2.231-3.288.154-1.167-.27-2.411-.106-3.574.164-1.168 1.027-2.23 1.205-3.393.179-1.168-.959-2.53-.771-3.693.193-1.163.4-2.331.602-3.489.203-1.163.049-2.392.261-3.55.217-1.158 1.827-2.059 2.058-3.212.226-1.158-.853-2.574-.612-3.727s1.075-2.187 1.326-3.34c.255-1.154 1.489-2.083 1.754-3.232.265-1.148.111-2.387.39-3.531.28-1.148.555-2.287.844-3.431.289-1.144.072-2.411.376-3.551.303-1.138 1.267-2.096 1.586-3.236.318-1.138.766-2.225 1.099-3.359.327-1.134-.569-2.616-.227-3.746.342-1.129 1.335-2.063 1.687-3.188.352-1.125 1.075-2.13 1.441-3.25.367-1.12.979-2.154 1.355-3.265M291.106 66.075c1.19.048 2.333 1.058 3.523 1.125 1.191.067 2.362.276 3.548.358 1.19.085 2.453-.825 3.639-.725 1.186.1 2.333.648 3.519.767 1.186.12 2.366.267 3.547.405 1.186.139 2.358.339 3.538.496 1.181.152 2.429-.157 3.606.014 1.181.172 2.222 1.187 3.398 1.377 1.176.191 2.535-.686 3.706-.48 1.172.204 2.136 1.543 3.307 1.767 1.171.224 2.43-.023 3.596.215s2.198 1.081 3.359 1.334c1.162.258 2.367.305 3.524.577 1.157.271 2.4.2 3.553.49 1.156.291 2.154 1.144 3.306 1.45 1.152.304 2.439.095 3.586.419 1.148.323 2.256.753 3.398 1.09 1.143.34 2.271.701 3.408 1.054 1.138.353 2.343.486 3.475.858 1.133.372 2.377.41 3.505.796 1.123.386 2.236.824 3.354 1.225 1.119.4 1.981 1.491 3.095 1.91 1.113.42 2.145 1.02 3.253 1.454 1.109.434 2.574-.023 3.678.424 1.104.448 2.092 1.168 3.186 1.63 1.094.462 2.309.667 3.393 1.144 1.09.476 2.29.724 3.375 1.215 1.079.49 1.846 1.668 2.921 2.173 1.075.505 2.01 1.287 3.08 1.811 1.07.52 2.092 1.115 3.152 1.649 1.061.534 2.661.043 3.716.59 1.056.549 1.933 1.43 2.979 1.998 1.046.567 2.159 1.02 3.196 1.596 1.036.577 1.894 1.478 2.921 2.068 1.031.591 1.788 1.63 2.81 2.236 1.022.605 2.232.895 3.244 1.515 1.012.62 2.077 1.158 3.08 1.792 1.003.634 1.841 1.52 2.839 2.163.998.644 2.097 1.135 3.08 1.792.988.658 2.323.815 3.302 1.487.978.672 1.937 1.382 2.907 2.068.968.687 1.282 2.259 2.241 2.96.959.696 2.029 1.239 2.979 1.949.949.71 1.764 1.587 2.704 2.306.938.725 1.862 1.459 2.79 2.193.932.734 2.039 1.243 2.959 1.987.924.748 1.996 1.306 2.906 2.064.911.757 1.526 1.853 2.428 2.625.897.772 2.117 1.177 3.011 1.959.893.782 1.913 1.42 2.789 2.216.88.796 1.394 1.978 2.261 2.783.868.806 2.101 1.23 2.959 2.049.859.815 1.203 2.154 2.048 2.983.85.83 2.197 1.159 3.033 1.997.833.839 1.469 1.873 2.297 2.721.824.849 1.521 1.812 2.336 2.674.815.863 1.468 1.859 2.27 2.726.802.872 2.318 1.105 3.111 1.987.789.882.872 2.373 1.652 3.264.776.892 2.279 1.173 3.046 2.079.767.9 1.399 1.92 2.148 2.835.754.91.911 2.297 1.656 3.221.741.92 1.678 1.688 2.406 2.622.728.929 1.974 1.477 2.689 2.416.714.938.414 2.626 1.111 3.579.706.948 2.227 1.31 2.919 2.273.689.958 1.072 2.135 1.748 3.102.675.968 1.612 1.768 2.275 2.745.662.977 1.398 1.916 2.048 2.903.653.986 1.507 1.849 2.144 2.845.636.996.514 2.459 1.133 3.464.623 1.006 1.956 1.587 2.566 2.598.606 1.01.698 2.325 1.295 3.345.592 1.02.649 2.34 1.224 3.369.58 1.03 1.974 1.616 2.536 2.65.567 1.034.711 2.292 1.26 3.336.549 1.043 1.133 2.068 1.669 3.121.531 1.053.667 2.297 1.189 3.355.519 1.058 1.238 2.016 1.744 3.083.505 1.068 1.586 1.873 2.078 2.946.493 1.072 1.042 2.125 1.517 3.202.475 1.082 1.019 2.14 1.477 3.226.457 1.087 1.072 2.121 1.516 3.213.445 1.091.75 2.249 1.177 3.345.431 1.101.85 2.211 1.264 3.317M52.473 204.826c.544-1.044.814-2.226 1.373-3.26.56-1.034 1.466-1.878 2.04-2.902.573-1.025 1.175-2.03 1.763-3.05.588-1.015.849-2.226 1.451-3.231.603-1.011 1.571-1.802 2.188-2.802.617-1.001 1.258-1.983 1.89-2.974.631-.991.974-2.164 1.62-3.146.645-.981 1.335-1.939 1.995-2.911.66-.973 1.456-1.854 2.13-2.817.675-.962 1.128-2.082 1.813-3.035.69-.953 1.325-1.949 2.03-2.893.698-.944 1.426-1.878 2.14-2.812.713-.934 1.387-1.906 2.115-2.831.728-.924 1.711-1.653 2.454-2.563.742-.916 1.325-1.954 2.077-2.86.752-.905 1.846-1.53 2.613-2.421.766-.896 1.426-1.873 2.207-2.754.776-.882 1.543-1.778 2.333-2.65.79-.872 1.364-1.94 2.17-2.802.8-.863 1.59-1.74 2.404-2.592.815-.854 1.832-1.511 2.656-2.35.825-.839 1.538-1.792 2.377-2.621.838-.829 1.769-1.568 2.617-2.383.848-.82 1.528-1.816 2.386-2.621.858-.805 1.716-1.62 2.588-2.416.873-.796 1.769-1.568 2.651-2.35.882-.781 1.803-1.525 2.695-2.297.891-.772 1.788-1.539 2.689-2.301.902-.758 2.097-1.173 3.008-1.921s1.866-1.439 2.786-2.178c.921-.734 1.552-1.83 2.487-2.554.931-.725 1.996-1.282 2.936-1.992s1.894-1.411 2.844-2.107c.949-.7 1.923-1.367 2.882-2.054.959-.686 1.793-1.548 2.767-2.22.969-.672 2.169-1.016 3.147-1.678.979-.662 1.678-1.734 2.666-2.383.988-.648 2.275-.843 3.273-1.477.998-.634 1.875-1.454 2.877-2.073 1.003-.62 2.165-.991 3.177-1.601 1.012-.606 1.976-1.296 2.993-1.887 1.022-.596 1.957-1.33 2.988-1.907 1.032-.576 2.194-.92 3.23-1.487M285.862 102.546c1.041.568 1.841 1.554 2.877 2.131 1.037.576 2.565.295 3.596.881 1.027.586 1.721 1.754 2.743 2.35 1.021.595 2.352.686 3.369 1.291 1.017.605 2.102 1.11 3.114 1.725s1.306 2.378 2.314 2.998c1.007.624 2.183.967 3.185 1.601.998.634 2.416.639 3.408 1.277.993.644 1.442 2.107 2.43 2.76.988.652 1.933 1.358 2.916 2.02.983.658 1.966 1.306 2.945 1.978.974.667 2 1.258 2.974 1.94.969.676 2.092 1.139 3.056 1.83.964.686 1.75 1.61 2.704 2.306.959.696 2.063 1.187 3.012 1.892.95.705 2.252.953 3.196 1.663.945.71 1.822 1.516 2.762 2.235.94.72 1.711 1.654 2.642 2.383.93.729 2.067 1.206 2.993 1.944.925.739 1.427 1.988 2.347 2.731.916.744 2.01 1.282 2.921 2.035.911.753 1.668 1.687 2.569 2.449.907.763 2.376.873 3.273 1.645.897.772 1.788 1.553 2.68 2.335.892.777 1.846 1.487 2.733 2.273.882.786 1.634 1.72 2.511 2.516.878.796 1.88 1.458 2.753 2.259.867.801 1.012 2.369 1.875 3.179.863.81 2.367.953 3.219 1.773.854.814.907 2.444 1.755 3.269.848.824 1.644 1.692 2.482 2.521.839.834 1.818 1.52 2.652 2.359.828.839 1.846 1.496 2.67 2.344.824.849 1.412 1.912 2.227 2.764.814.854 2.448.953 3.258 1.816.81.863 1.441 1.887 2.241 2.755.801.867 1.013 2.259 1.808 3.136.79.876 1.355 1.944 2.14 2.825.786.882 2.203 1.216 2.979 2.107.776.891 1.398 1.911 2.164 2.812.766.895 1.147 2.111 1.909 3.016.761.906 2.024 1.392 2.776 2.302.752.91 1.682 1.682 2.425 2.597.742.915 1.619 1.735 2.357 2.655.733.924 1.48 1.844 2.207 2.778.728.929.733 2.407 1.451 3.341.719.938 1.133 2.092 1.842 3.035.708.944 2.535 1.073 3.234 2.026.699.948.217 2.744.906 3.703.689.957 1.412 1.882 2.097 2.845.684.962 2.424 1.196 3.094 2.168.675.967.622 2.426 1.283 3.403.665.977 2.072 1.458 2.728 2.44.655.981 1.099 2.101 1.744 3.088.646.986.391 2.54 1.027 3.536.636.991 2.314 1.339 2.935 2.34.627 1 .237 2.611.854 3.617.617 1.006 2.034 1.535 2.641 2.545.607 1.01.256 2.578.848 3.593a230.628 230.628 0 0 1 1.774 3.05c.59 1.02 1.667 1.763 2.246 2.792.58 1.03 1.173 2.04 1.739 3.074.571 1.034 1.063 2.102 1.621 3.141.558 1.039 1.813 1.716 2.358 2.759.544 1.044.204 2.535.74 3.584.536 1.048 1.003 2.125 1.53 3.179.523 1.053 1.931 1.682 2.449 2.74.514 1.058.07 2.564.575 3.631.51 1.063.963 2.145 1.451 3.212.493 1.068 1.791 1.778 2.271 2.85.484 1.072.867 2.192 1.338 3.269.47 1.077.579 2.312 1.041 3.393.458 1.082 1.569 1.902 2.018 2.988.449 1.087 1.067 2.116 1.503 3.208.44 1.091.837 2.206 1.26 3.302.422 1.096.993 2.149 1.407 3.25.414 1.101.074 2.483.471 3.589.405 1.105 1.298 2.039 1.695 3.15.388 1.11-.262 2.573.113 3.683.384 1.116 1.09 2.112 1.46 3.232.366 1.115.793 2.216 1.142 3.336.357 1.12 1.429 2.025 1.773 3.15.345 1.124.759 2.235 1.085 3.364.336 1.13-.008 2.449.31 3.579.318 1.13 1.041 2.159 1.346 3.293.301 1.134.301 2.354.597 3.488.292 1.14 1.212 2.131 1.491 3.27.279 1.139.597 2.282.863 3.426.27 1.144.457 2.312.71 3.46.257 1.149.379 2.331.619 3.479.239 1.149.483 2.306.71 3.46.227 1.153-.667 2.516-.449 3.669.214 1.153.27 2.33.471 3.489.205 1.158 1.582 2.12 1.773 3.278.188 1.158-.139 2.402.035 3.565.174 1.163.323 2.326.488 3.489.161 1.162.249 2.334.397 3.502M136.222 63.073c1.233.038 2.463.124 3.696.176 1.234.053 2.468.076 3.697.138 1.234.068 2.469.058 3.697.139 1.23.08 2.454.28 3.683.371 1.229.096 2.463.139 3.692.248 1.229.11 2.454.234 3.683.358 1.229.123 2.463.185 3.687.324 1.224.138 2.444.338 3.668.49 1.225.153 2.464.191 3.688.358M282.628 53.108c1.151-.258 2.294-.563 3.451-.8 1.156-.244 2.285-.62 3.446-.844 1.162-.224 2.396-.048 3.557-.258 1.162-.21 2.237-.915 3.403-1.105 1.167-.191 2.42.148 3.587-.034 1.171-.176 2.226-1.11 3.398-1.272 1.171-.162 2.352-.296 3.523-.439 1.171-.142 2.391.063 3.567-.066 1.176-.129 2.367-.096 3.543-.21 1.176-.114 2.333-.486 3.509-.581 1.176-.096 2.395.324 3.576.238 1.181-.081 2.343-.41 3.524-.477 1.181-.066 2.347-.466 3.528-.519 1.181-.048 2.386.6 3.567.562 1.181-.038 2.357-.2 3.538-.22 1.181-.018 2.362-.08 3.543-.085 1.18-.004 2.361.067 3.542.081 1.181.015 2.362.005 3.543.034 1.181.028 2.381-.467 3.562-.424 1.181.042 2.338.643 3.519.7 1.181.062 2.362.033 3.543.11 1.181.076 2.367.028 3.548.119 1.18.09 2.361.148 3.537.257 1.176.11 2.348.296 3.524.42 1.176.123 2.347.28 3.519.419 1.176.138 2.419-.243 3.59-.09 1.172.152 2.247.995 3.418 1.167 1.171.172 2.415-.148 3.581.038 1.167.186 2.28.706 3.446.905 1.167.2 2.3.544 3.466.763 1.167.22 2.28.643 3.437.877 1.157.233 2.348.31 3.499.557 1.157.248 2.391.139 3.543.406 1.152.262 2.174 1.053 3.321 1.33 1.148.28 2.357.3 3.505.595 1.142.295 2.274.639 3.412.948 1.138.31 2.362.33 3.499.653 1.138.324 2.189.925 3.321 1.268 1.133.343 2.435.148 3.558.505 1.127.357 2.13 1.086 3.253 1.458 1.124.372 2.352.434 3.471.82 1.113.386 2.256.72 3.369 1.125 1.109.405 1.943 1.539 3.046 1.958 1.104.42 2.27.667 3.369 1.1 1.098.435 2.362.478 3.451.926M106.848 392.714c-.439-1.101-.299-2.426-.718-3.531-.42-1.106-.135-2.464-.54-3.579-.405-1.115-2.121-1.768-2.507-2.888-.39-1.12.429-2.636.053-3.76-.371-1.125-1.253-2.083-1.605-3.212-.356-1.129-1.484-2.03-1.822-3.165-.337-1.134-.216-2.406-.54-3.545-.323-1.139-.588-2.297-.896-3.441-.309-1.144-.911-2.216-1.2-3.364-.29-1.149-.825-2.245-1.094-3.398-.275-1.154.814-2.612.559-3.765-.256-1.153-.69-2.264-.93-3.426-.242-1.159-1.553-2.112-1.774-3.27-.227-1.162.047-2.421-.16-3.583-.207-1.163-.212-2.364-.404-3.532-.193-1.167-1.118-2.225-1.292-3.398-.174-1.167.78-2.502.622-3.674-.16-1.172-.743-2.288-.887-3.46-.145-1.172-.526-2.321-.65-3.498-.126-1.177.626-2.435.515-3.612-.111-1.177-.993-2.288-1.085-3.465-.096-1.177-.434-2.344-.51-3.521-.078-1.182-.348-2.355-.41-3.536-.063-1.182.91-2.412.862-3.594-.048-1.182-1.055-2.335-1.089-3.517-.029-1.182.362-2.378.347-3.56-.014-1.182.68-2.368.68-3.55s-1.234-2.373-1.215-3.56c.02-1.182 1.094-2.345 1.128-3.527.034-1.181-.767-2.392-.718-3.574.048-1.181-.02-2.373.048-3.555.063-1.182 1.504-2.278 1.586-3.46.082-1.181-.497-2.402-.405-3.579.096-1.177-.43-2.416-.318-3.593.11-1.177 1.388-2.24 1.518-3.417.125-1.177-.366-2.416-.226-3.593.144-1.172-.087-2.397.072-3.57.159-1.172.091-2.382.265-3.55.173-1.172 1.055-2.235 1.244-3.403.187-1.167.332-2.339.54-3.507.207-1.168.848-2.249 1.07-3.412.221-1.163.689-2.269.925-3.427.236-1.158-.063-2.421.188-3.578.25-1.159.925-2.217 1.19-3.37.266-1.153-.564-2.564-.284-3.712.284-1.149.641-2.288.94-3.431.299-1.144 1.436-2.073 1.75-3.213.313-1.143-.328-2.544 0-3.683.328-1.139 1.691-1.978 2.034-3.108.342-1.134.154-2.425.515-3.55.357-1.129 1.548-1.987 1.919-3.112.376-1.124-.13-2.535.256-3.655.39-1.12.665-2.278 1.069-3.393.405-1.115 1.321-2.04 1.74-3.15.42-1.106.753-2.245 1.186-3.346.434-1.1.627-2.297 1.08-3.393.448-1.096 1.567-1.916 2.029-3.007.463-1.091.092-2.53.574-3.617.482-1.082 1.831-1.777 2.328-2.855.497-1.077-.26-2.725.251-3.798.51-1.072 1.065-2.13 1.59-3.193.525-1.062 1.615-1.853 2.155-2.911.54-1.058 1.335-1.983 1.889-3.031.555-1.049.694-2.316 1.263-3.355.569-1.039 1.943-1.64 2.531-2.674.583-1.034.776-2.278 1.373-3.303.598-1.024.675-2.354 1.288-3.369.611-1.015 2.289-1.391 2.916-2.397.626-1.005 1.046-2.135 1.687-3.131s1.204-2.035 1.865-3.026c.656-.986 1.412-1.901 2.082-2.883.67-.977 1.301-1.973 1.991-2.945.684-.968.598-2.483 1.297-3.441.698-.958 2.193-1.344 2.906-2.292.713-.948 1.292-1.992 2.02-2.926.727-.939 1.272-2.016 2.015-2.941.742-.929 1.431-1.896 2.188-2.811.757-.915 1.619-1.745 2.386-2.65.771-.905 1.581-1.773 2.361-2.664.781-.891.858-2.411 1.654-3.293.795-.882 2.511-.944 3.321-1.816.81-.867.969-2.344 1.793-3.202.824-.858 2.082-1.306 2.921-2.154M244.462 132.079c.468 1.077.487 2.349.955 3.426.467 1.077 1.075 2.102 1.542 3.179.468 1.077.01 2.554.477 3.631.468 1.078.83 2.207 1.297 3.284.467 1.077 1.721 1.825 2.188 2.902.468 1.077.569 2.316 1.041 3.393.468 1.077.54 2.326 1.008 3.408.467 1.076 2.261 1.596 2.728 2.673.468 1.077.8 2.216 1.268 3.293.467 1.077.891 2.178 1.359 3.255.468 1.077.014 2.55.482 3.632.468 1.076 1.928 1.734 2.4 2.816.468 1.077.285 2.435.752 3.512.468 1.077.444 2.369.911 3.446.468 1.077 2.304 1.577 2.772 2.654.468 1.077-.246 2.659.226 3.741.468 1.077.752 2.235 1.225 3.317.467 1.077 2.25 1.601 2.718 2.678.468 1.077.872 2.188 1.34 3.264.468 1.078.791 2.221 1.258 3.298.468 1.077.328 2.417.8 3.493.468 1.078 1.109 2.088 1.576 3.165.468 1.077.892 2.178 1.36 3.255.468 1.077.265 2.444.733 3.522.467 1.077.987 2.135 1.455 3.216.468 1.077 2.401 1.535 2.868 2.617.468 1.077-.583 2.802-.116 3.884.468 1.077 1.953 1.725 2.42 2.807.468 1.081.005 2.554.473 3.631.467 1.077 1.759 1.811 2.226 2.888.468 1.077.135 2.497.608 3.579.472 1.082.824 2.206 1.291 3.283.468 1.078 2.059 1.683 2.531 2.76.468 1.077 1.277 2.011 1.75 3.092.467 1.078-.034 2.574.434 3.651.467 1.077.376 2.397.843 3.474.467 1.077 1.716 1.825 2.188 2.907.468 1.077.43 2.373.897 3.455.468 1.082.863 2.192 1.33 3.269.468 1.077.979 2.14 1.446 3.222.468 1.077 2.198 1.62 2.666 2.702.467 1.077-.164 2.626.303 3.703.468 1.077 1.996 1.706 2.464 2.788.467 1.077.949 2.154 1.422 3.231.467 1.077.506 2.34.973 3.422.468 1.077.776 2.225 1.244 3.307.468 1.082.593 2.307 1.06 3.383.468 1.077.419 2.378.892 3.456.467 1.077 1.277 2.015 1.745 3.092.467 1.077.993 2.135 1.46 3.212.468 1.078 1.254 2.026 1.721 3.103.468 1.077 1.374 1.973 1.846 3.05.472 1.077.077 2.525.545 3.603.467 1.077 1.88 1.758 2.347 2.835.468 1.077 1.374 1.973 1.841 3.05.468 1.077-.703 2.855-.236 3.937.468 1.076 2.136 1.649 2.603 2.725.468 1.077.8 2.217 1.273 3.294.467 1.076.655 2.277 1.123 3.355.467 1.077.959 2.149 1.427 3.226.467 1.077 1.166 2.058 1.633 3.14.468 1.082 1.476 1.93 1.943 3.007.468 1.078.564 2.317 1.032 3.394.467 1.076 1.195 2.068 1.662 3.149.468 1.082.28 2.436.753 3.518.472 1.081.139 2.497.607 3.578.467 1.082 2.439 1.521 2.906 2.598.468 1.077-.419 2.735.053 3.812.468 1.077 1.523 1.911 1.991 2.988.468 1.077 1.817 1.788 2.285 2.864.467 1.077.429 2.374.896 3.455.468 1.078.882 2.183 1.355 3.26.467 1.077 1.277 2.016 1.744 3.093.468 1.077 1.211 2.035 1.683 3.112.467 1.077-.554 2.793-.082 3.87.468 1.076 1.142 2.073 1.61 3.149.467 1.078 2.121 1.654 2.588 2.736.468 1.077.4 2.388.868 3.465.467 1.077.728 2.249 1.195 3.326.468 1.077 1.745 1.816 2.213 2.893.467 1.077-.285 2.678.183 3.755.467 1.077 1.407 1.959 1.875 3.036.467 1.077 1.205 2.044 1.672 3.121.468 1.077-.005 2.559.463 3.636s1.779 1.802 2.246 2.879c.468 1.077 1.21 2.044 1.678 3.121.467 1.077 1.151 2.069 1.619 3.146.468 1.076-.169 2.625.304 3.707.472 1.082 1.986 1.711 2.453 2.793.468 1.077.492 2.345.959 3.426.468 1.082.184 2.478.651 3.555.468 1.077 2.276 1.592 2.743 2.669.467 1.075-.193 2.641.279 3.716.468 1.079 1.842 1.776 2.309 2.856.468 1.083 1.07 2.103 1.543 3.178.472 1.079-.535 2.783-.063 3.862.468 1.075 1.658 1.854 2.126 2.929.467 1.079 1.619 1.871 2.087 2.946.467 1.075-.314 2.688.154 3.767M197.712 26.12c.539 1.249.959 2.33 1.373 3.274.545 1.249.979 2.292 1.393 3.25.482 1.106.897 2.111 1.379 3.217.414.953.925 1.954 1.47 3.198.414.948.858 2.03 1.403 3.288"/><path d="M440.004 64.24c.436 1.1 2.257 1.682 2.645 2.793.396 1.115.518 2.33.867 3.455.353 1.125-.061 2.468.248 3.602.31 1.14.746 2.23 1.011 3.375.266 1.148-.217 2.425.009 3.583.227 1.159 2.292 1.992 2.475 3.155.183 1.163.057 2.392.196 3.565.14 1.168.484 2.34.58 3.512.096 1.172.388 2.364.449 3.54.057 1.173-.893 2.398-.872 3.575.018 1.172-.893 2.335-.919 3.512-.022 1.173 1.163 2.383 1.102 3.56-.065 1.173-1.56 2.24-1.66 3.417-.1 1.168 1.39 2.493 1.251 3.66-.135 1.168-1.238 2.211-1.408 3.379-.174 1.158 1.072 2.559.863 3.717-.209 1.153-.375 2.349-.614 3.503-.24 1.148-2.044 1.963-2.323 3.107-.275 1.139-.85 2.192-1.151 3.331-.305 1.13 1.064 2.736.728 3.865-.34 1.125-.584 2.306-.95 3.426-.366 1.116-1.603 1.959-1.996 3.075-.396 1.105-1.233 2.049-1.66 3.154-.418 1.096-.736 2.231-1.19 3.322-.448 1.081-1.717 1.816-2.192 2.897-.473 1.072-.116 2.507-.617 3.579-.497 1.063-1.027 2.116-1.553 3.174-.52 1.053-1.084 2.083-1.633 3.131-.545 1.039-.444 2.431-1.017 3.469-.57 1.03-.825 2.254-1.418 3.279-.588 1.015-2.183 1.468-2.795 2.478-.608 1.006-.584 2.407-1.22 3.408-.631.991-2.121 1.448-2.776 2.435-.646.982-1.504 1.821-2.174 2.797-.665.968-1.485 1.826-2.174 2.788-.684.958.111 2.979-.598 3.927-.703.944-1.349 1.959-2.077 2.898-.718.934-2.608.981-3.345 1.911-.738.919-1.007 2.211-1.764 3.126-.753.91-1.625 1.725-2.396 2.626-.762.891-2.048 1.343-2.829 2.23-.776.881-1.244 2.035-2.039 2.907-.791.867-2.333 1.048-3.148 1.911-.805.858-.776 2.488-1.6 3.34-.819.844-2.266 1.083-3.104 1.921-.834.834-1.678 1.644-2.526 2.469-.848.82-1.166 2.173-2.034 2.983-.858.81-1.012 2.373-1.889 3.174-.873.796-2.95.291-3.837 1.077-.882.786-1.123 2.283-2.02 3.059-.892.772-2.034 1.268-2.94 2.03-.906.758-1.056 2.421-1.977 3.174-.915.749-1.836 1.516-2.766 2.254-.926.735-2.275.959-3.22 1.688-.935.724-2.463.691-3.413 1.406-.945.71-1.619 1.777-2.578 2.478-.955.7-1.355 2.163-2.324 2.849-.964.687-2.096 1.149-3.07 1.826-.969.672-1.702 1.711-2.69 2.373-.978.662-2.265.891-3.258 1.544-.988.648-2.02 1.253-3.022 1.892-.998.639-2.825-.019-3.837.61-1.008.624-.94 2.964-1.957 3.579-1.012.615-2.309.786-3.336 1.392-1.022.6-2.569.319-3.605.91-1.032.591-1.186 2.707-2.227 3.288-1.036.577-2.511.395-3.562.963a275.464 275.464 0 0 1-3.152 1.667c-1.051.554-1.89 1.521-2.95 2.064-1.056.538-1.914 1.497-2.984 2.026-1.065.529-2.617.099-3.692.619-1.07.515-2.285.744-3.369 1.248-1.075.501-2.135 1.04-3.22 1.53-1.085.491-1.948 1.468-3.042 1.945-1.089.481-2.79-.429-3.894.043-1.099.467-2.073 1.2-3.181 1.658-1.104.453-1.668 2.206-2.782 2.65-1.113.443-2.164 1.067-3.287 1.496-1.113.429-2.164 1.039-3.273 1.458-1.118.415-2.627-.214-3.745.191-1.123.405-2.203.91-3.326 1.301-1.128.391-1.976 1.582-3.104 1.959-1.133.376-2.468.152-3.601.519-1.138.367-2.574-.224-3.706.129-1.138.352-2.093 1.287-3.23 1.625-1.142.338-2.405.262-3.547.586-1.147.324-1.871 2.135-3.018 2.45-1.152.314-2.834-1.34-3.981-1.04-1.157.301-1.914 2.112-3.066 2.398-1.157.286-2.193 1.11-3.345 1.382-1.167.271-2.425.171-3.586.429-1.167.257-2.453.005-3.615.248-1.172.243-2.391.247-3.557.476-1.177.229-2.256.934-3.427 1.148-1.176.215-2.55-.676-3.727-.476-1.181.2-2.077 2.073-3.253 2.259-1.181.186-2.463-.219-3.639-.048-1.186.172-2.454-.281-3.635-.124-1.185.157-2.207 1.606-3.388 1.744-1.186.144-2.564-1.348-3.75-1.219-1.19.128-2.203 1.963-3.389 2.073-1.19.109-2.487-.934-3.673-.839-1.19.095-2.414-.267-3.6-.186-1.196.081-2.405-.31-3.591-.248-1.196.062-2.304 1.821-3.495 1.868-1.195.048-2.415-.505-3.6-.476-1.196.028-2.386.233-3.577.248-1.195.014-2.39-1.206-3.581-1.211-1.196-.005-2.372-.162-3.562-.181-1.196-.019-2.405.982-3.591.948-1.196-.038-2.362-.567-3.553-.624-1.195-.057-2.342-.643-3.528-.715-1.191-.072-2.501 1.582-3.687 1.492-1.191-.091-2.372-.372-3.558-.481-1.19-.11-2.376-.291-3.557-.42-1.186-.129-2.227-1.477-3.403-1.625-1.186-.148-2.54.991-3.716.824-1.181-.166-2.232-1.196-3.403-1.381-1.181-.186-2.232-1.025-3.403-1.23-1.176-.205-2.68 1.349-3.847 1.125-1.171-.229-2.024-1.992-3.181-2.24-1.166-.248-2.261-.739-3.412-1.006-1.162-.267-2.734 1.134-3.88.848-1.157-.29-2.3-.681-3.442-.991-1.152-.314-2.251-.824-3.389-1.158-1.147-.333-2.053-1.449-3.19-1.806-1.143-.358-2.343-.514-3.471-.891-1.133-.381-2.237-.834-3.35-1.235-1.123-.404-1.914-1.648-3.017-2.073-1.114-.428-2.227-.8-3.322-1.253-1.103-.453-2.969.853-4.053.376-1.094-.476-1.335-2.792-2.406-3.292-1.079-.506-2.732.186-3.793-.339-1.07-.529-1.547-2.159-2.593-2.711-1.056-.553-2.613-.167-3.644-.744-1.041-.581-1.523-2.078-2.535-2.683-1.022-.605-1.933-1.344-2.931-1.973-1.007-.634-2.815-.038-3.793-.695-.989-.663-2.237-.973-3.201-1.659-.969-.686-1.152-2.421-2.097-3.131-.944-.715-1.398-2.006-2.318-2.745-.926-.743-2.487-.696-3.384-1.463-.901-.772-1.33-2.044-2.203-2.84-.877-.796-1.648-1.664-2.492-2.483-.848-.825-1.701-1.606-2.52-2.454-.82-.849-2.859-.587-3.65-1.463-.79-.877-.457-2.717-1.214-3.617-.762-.901-2.603-.944-3.331-1.873-.728-.93-1.47-1.878-2.164-2.831-.694-.953-.911-2.254-1.571-3.231-.66-.972-1.119-2.083-1.745-3.079-.622-.996-.83-2.23-1.417-3.25-.588-1.02-.535-2.349-1.085-3.393-.55-1.039-1.465-1.859-1.976-2.917-.511-1.057-1.06-2.073-1.533-3.154-.472-1.073-1.306-1.988-1.74-3.084"/><path d="M497.704 138.965c.087 1.177.336 2.336.392 3.508.057 1.182-.723 2.368-.688 3.545.026 1.182 2.153 2.331 2.153 3.503 0 1.182-.336 2.373-.366 3.551-.031 1.181.178 2.382.122 3.555-.053 1.177.109 2.392.026 3.564-.079 1.177-1.277 2.274-1.386 3.446-.113 1.172-1.238 2.23-1.381 3.398-.14 1.172 1.063 2.507.897 3.669-.17 1.168-1.913 2.083-2.104 3.241-.192 1.163 1.364 2.626 1.141 3.779-.222 1.158-1.494 2.106-1.743 3.255-.253 1.153 1.068 2.659.793 3.803-.274 1.143-.496 2.33-.802 3.469-.3 1.139-2.318 1.82-2.645 2.95-.327 1.13-.976 2.154-1.329 3.274-.353 1.125 1.146 2.84.772 3.956-.375 1.115-.65 2.292-1.051 3.402-.401 1.106-1.756 1.882-2.179 2.983-.427 1.101-1.337 2.007-1.782 3.098-.449 1.091-.771 2.225-1.246 3.307-.466 1.082-1.839 1.754-2.332 2.826-.492 1.072-.056 2.554-.57 3.617-.51 1.063-1.051 2.107-1.587 3.16-.527 1.049-1.106 2.078-1.66 3.122-.553 1.038-.383 2.468-.954 3.502-.575 1.03-.798 2.274-1.386 3.293-.588 1.02-2.297 1.406-2.907 2.416-.605 1.011-.505 2.454-1.133 3.451-.623.996-2.213 1.396-2.863 2.387-.645.987-1.512 1.816-2.178 2.798-.659.977-1.486 1.825-2.166 2.792-.676.968.313 3.098-.384 4.051-.693.953-1.32 1.982-2.026 2.926-.71.944-2.728.92-3.451 1.854-.724.934-.924 2.273-1.661 3.193-.736.919-1.608 1.744-2.362 2.654-.749.91-2.087 1.339-2.854 2.245-.767.901-1.168 2.097-1.948 2.988-.775.891-2.405 1.029-3.194 1.911-.789.877-.628 2.597-1.425 3.469-.806.868-2.314 1.077-3.133 1.935-.815.858-1.639 1.692-2.462 2.535-.828.844-1.055 2.269-1.892 3.103-.841.834-.862 2.488-1.712 3.312-.846.824-3.079.238-3.942 1.049-.858.814-.974 2.396-1.841 3.202-.868.8-2.02 1.306-2.897 2.097-.878.791-.882 2.554-1.769 3.336-.887.781-1.779 1.582-2.68 2.354-.896.772-2.29.986-3.196 1.749-.906.762-2.506.705-3.422 1.453-.916.748-1.514 1.883-2.439 2.621-.925.739-1.196 2.302-2.131 3.031-.935.729-2.067 1.22-3.012 1.94-.945.72-1.596 1.83-2.55 2.535-.949.71-2.265.953-3.225 1.649-.959.696-1.961 1.344-2.93 2.03-.969.686-2.931-.019-3.905.658-.973.677-.65 3.202-1.633 3.865-.984.667-2.3.858-3.288 1.515-.988.658-2.612.362-3.61 1.006-.998.643-.921 2.94-1.923 3.574-1.003.634-2.54.457-3.548 1.077-1.012.624-2.034 1.234-3.051 1.849-1.017.615-1.769 1.677-2.791 2.278-1.027.605-1.793 1.659-2.82 2.25-1.031.59-2.665.157-3.702.738-1.041.581-2.25.858-3.291 1.425-1.046.572-2.068 1.177-3.115 1.74-1.05.562-1.817 1.643-2.872 2.192-1.056.548-2.892-.396-3.953.142-1.06.539-1.961 1.368-3.026 1.892-1.071.529-1.437 2.455-2.507 2.969-1.075.515-2.058 1.225-3.138 1.73-1.08.505-2.073 1.211-3.152 1.702-1.085.495-2.69-.143-3.775.338-1.089.481-2.125 1.077-3.214 1.544-1.095.472-1.817 1.806-2.912 2.264-1.104.462-2.482.266-3.586.715-1.109.447-2.627-.144-3.736.29-1.108.434-1.961 1.501-3.07 1.921-1.113.424-2.391.391-3.504.796-1.118.41-1.644 2.43-2.757 2.826-1.123.395-2.998-1.349-4.116-.968-1.129.382-1.693 2.416-2.82 2.783-1.133.367-2.078 1.325-3.206 1.678-1.137.357-2.41.305-3.543.643-1.132.338-2.434.119-3.562.439-1.137.324-2.356.391-3.513.705-1.143.314-2.155 1.148-3.312 1.449-1.147.3-2.617-.615-3.779-.329-1.152.286-1.855 2.411-3.017 2.687-1.157.277-2.478-.099-3.649.163-1.162.262-2.478-.163-3.649.09-1.161.248-2.034 1.921-3.205 2.159-1.167.238-2.704-1.315-3.875-1.091-1.172.224-1.986 2.335-3.167 2.549-1.172.21-2.584-.843-3.765-.643-1.176.2-2.434-.105-3.62.086-1.176.186-2.434-.143-3.615.033s-2.092 2.221-3.277 2.383c-1.181.162-2.463-.338-3.654-.191-1.186.148-2.352.491-3.543.629-1.185.138-2.525-1.091-3.716-.967-1.191.124-2.386.076-3.582.191-1.19.109-2.275 1.358-3.47 1.458-1.191.095-2.425-.353-3.62-.267-1.195.086-2.419-.424-3.615-.353-1.196.072-2.285 2.073-3.48 2.13-1.196.058-2.41-.095-3.61-.052-1.196.043-2.406.009-3.606.038-1.2.029-2.42-1.305-3.62-1.291-1.2.014-2.386 1.482-3.586 1.482-1.2 0-2.396-.967-3.591-.982-1.2-.014-2.376-.763-3.576-.791-1.2-.028-2.459 1.944-3.659 1.897-1.2-.043-2.323-1.83-3.519-1.892-1.2-.057-2.366-.396-3.562-.472-1.195-.076-2.53 1.768-3.725 1.677-1.196-.09-2.396-.29-3.587-.395-1.195-.11-2.376-.443-3.567-.567-1.195-.124-2.284-1.149-3.475-1.287-1.19-.143-2.41-.043-3.595-.2-1.191-.157-2.367-.396-3.548-.572-1.186-.176-2.208-1.334-3.389-1.53-1.185-.195-2.361-.324-3.538-.538-1.181-.214-2.766 1.673-3.938 1.444-1.176-.234-1.894-2.659-3.061-2.912-1.171-.253-2.665.943-3.831.672-1.167-.272-2.001-1.882-3.162-2.173-1.162-.291-2.628.577-3.779.267-1.162-.31-1.986-1.763-3.138-2.097-1.152-.334-2.237-.834-3.379-1.187-1.147-.352-2.796.853-3.933.477-1.138-.377-2.454-.291-3.582-.691-1.132-.396-1.764-2.154-2.887-2.574-1.123-.419-1.923-1.615-3.032-2.054-1.113-.443-2.651.167-3.754-.3-1.104-.467-1.885-1.625-2.979-2.116-1.095-.491-2.112-1.086-3.192-1.601-1.079-.515-2.159-.982-3.229-1.52-1.07-.539-2.998.548-4.054-.015-1.055-.562-1.31-2.554-2.352-3.145-1.041-.586-2.873.148-3.899-.462-1.027-.615-2.073-1.234-3.08-1.873-1.008-.639-1.673-1.825-2.661-2.492-.993-.663-1.841-1.54-2.815-2.231-.974-.691-1.63-1.796-2.588-2.511-.954-.715-1.413-2.026-2.348-2.764-.935-.739-2.159-1.092-3.075-1.854-.91-.762-1.856-1.468-2.748-2.254-.891-.786-2.082-1.239-2.95-2.054-.867-.81-2.183-1.177-3.03-2.016-.845-.834-.758-2.564-1.582-3.427-.82-.857-2.66-.791-3.456-1.677-.795-.882-2.087-1.377-2.858-2.283-.772-.905.361-3.35-.386-4.279-.742-.925-2.878-.782-3.596-1.735-.713-.943-1.263-2.025-1.952-2.997-.69-.963-1.017-2.178-1.682-3.17-.66-.981-1.335-1.963-1.972-2.968-.631-1.001-1.542-1.845-2.154-2.874-.603-1.015-1.894-1.673-2.477-2.717-.58-1.034-.661-2.359-1.215-3.421-.55-1.048-1.413-1.973-1.938-3.05"/><path d="M521.145 226.628c-.305 1.144-1.29 2.106-1.617 3.241-.331 1.138.654 2.668.305 3.798-.344 1.134-2.253 1.787-2.619 2.912-.366 1.124-.745 2.24-1.129 3.359-.388 1.12-.401 2.364-.806 3.479-.405 1.115-.052 2.507-.475 3.617-.427 1.106-.501 2.359-.946 3.46-.44 1.101-.897 2.211-1.355 3.307-.457 1.092-1.664 1.888-2.135 2.974-.475 1.087-.702 2.288-1.194 3.365-.493 1.077-1.19 2.073-1.704 3.14-.51 1.073-.902 2.207-1.425 3.269-.527 1.063-1.778 1.768-2.323 2.822-.54 1.053-.274 2.526-.836 3.574-.558 1.043-2.597 1.301-3.168 2.34-.576 1.039-1.303 1.973-1.896 3.002-.588 1.029.632 3.083.026 4.108-.601 1.02-1.15 2.092-1.765 3.102-.619 1.011-2.924 1.001-3.56 2.007-.632 1.001.575 3.159-.074 4.155-.649.996-3.142.801-3.804 1.782-.663.987-.868 2.26-1.543 3.236-.675.978-.266 2.698-.954 3.67-.689.968-1.159 2.106-1.861 3.064-.697.958-1.769 1.663-2.484 2.612-.71.948-2.388 1.177-3.116 2.12-.727.939-1.782 1.616-2.523 2.55-.736.929-.148 2.907-.902 3.827-.749.92-1.538 1.825-2.301 2.736-.762.91-1.386 1.953-2.161 2.854-.776.901-2.162 1.292-2.946 2.183-.784.891-1.634 1.729-2.432 2.611-.797.882-1.211 2.116-2.022 2.988-.81.872-2.932.529-3.752 1.392-.823.862-.296 2.988-1.124 3.836-.828.853-1.386 1.983-2.227 2.826-.841.839-1.669 1.716-2.523 2.545-.845.829-2.318 1.053-3.181 1.873-.863.82-1.73 1.635-2.602 2.449-.871.81-1.725 1.644-2.605 2.445-.885.8-1.508 1.887-2.397 2.678-.889.791-2.889.343-3.783 1.125-.897.781-1.46 1.935-2.362 2.707-.906.767-.858 2.659-1.78 3.417-.916.758-2.068 1.253-2.994 2.001-.925.748-2.54.663-3.475 1.401-.935.739-1.523 1.907-2.463 2.636-.94.729-2.188 1.067-3.138 1.787-.949.719-2.227 1.001-3.186 1.706-.959.71-1.629 1.787-2.598 2.483-.964.696-1.682 1.735-2.656 2.425-.973.687-2.434.687-3.417 1.363-.979.677-1.109 2.579-2.097 3.241-.988.667-2.776.162-3.769.82-.998.657-1.022 2.773-2.025 3.417-1.002.643-3.017-.262-4.029.371-1.013.634-1.504 2.078-2.521 2.702-1.017.625-2.401.658-3.423 1.268-1.022.615-1.354 2.378-2.386 2.979-1.031.6-3.022-.429-4.058.162s-1.085 2.893-2.13 3.474c-1.041.581-2.96-.386-4.006.181-1.051.567-1.716 1.825-2.772 2.383-1.055.557-1.624 2.039-2.684 2.588-1.061.547-2.897-.391-3.967.147-1.066.539-1.996 1.335-3.071 1.859-1.075.524-2.467.376-3.547.891-1.08.514-1.933 1.473-3.018 1.977-1.084.501-2.415.453-3.504.944-1.089.491-1.639 2.159-2.733 2.64-1.094.482-2.579.067-3.678.534-1.099.467-2.043 1.277-3.152 1.735-1.104.457-2.42.395-3.529.838-1.108.444-2.265.744-3.378 1.177-1.114.434-1.933 1.607-3.051 2.026-1.119.419-2.526.057-3.649.467-1.123.41-1.928 1.668-3.056 2.064-1.128.395-2.55-.053-3.678.333-1.133.386-1.759 2.235-2.897 2.607-1.137.372-2.607-.276-3.75.086-1.142.362-2.381.371-3.528.719-1.147.348-2.208.93-3.355 1.268-1.147.338-2.092 1.358-3.244 1.682-1.152.324-2.174 1.12-3.33 1.43-1.157.309-2.401.295-3.562.591-1.162.3-2.473-.01-3.635.276-1.162.286-2.053 1.682-3.22 1.954-1.166.272-2.559-.424-3.726-.167-1.171.257-2.087 1.673-3.258 1.916-1.171.248-2.463-.043-3.635.191-1.176.233-2.598-.834-3.773-.615-1.177.219-2.194 1.268-3.375 1.472-1.18.206-2.212 1.278-3.393 1.468-1.181.191-2.555-.8-3.735-.624-1.186.177-2.459-.334-3.645-.167-1.185.162-2.087 2.435-3.272 2.588-1.191.148-2.598-1.497-3.784-1.358-1.191.133-2.246 1.473-3.437 1.596-1.191.12-2.338.787-3.528.891-1.195.107-2.406.167-3.596.257-1.195.091-2.468-.814-3.663-.738-1.196.076-2.41-.171-3.606-.109-1.195.062-2.395-.115-3.595-.072-1.196.047-2.377.429-3.577.457-1.2.029-2.381.931-3.577.944-1.2.013-2.405.146-3.6.146-1.2 0-2.401-.537-3.596-.555-1.2-.021-2.362-1.278-3.562-1.307-1.195-.033-2.434 1.26-3.634 1.213-1.196-.052-2.353-.946-3.548-1.012-1.195-.067-2.444.729-3.639.648-1.195-.081-2.367-.491-3.557-.586-1.196-.101-2.29-1.206-3.48-1.321-1.191-.114-2.507.996-3.697.863-1.191-.133-2.203-1.692-3.389-1.839-1.186-.148-2.483.576-3.668.41-1.186-.167-2.439.109-3.62-.077s-2.15-1.615-3.331-1.815c-1.181-.201-2.535.619-3.711.4-1.176-.219-2.276-.81-3.446-1.049-1.172-.238-2.43-.076-3.596-.333-1.172-.253-2.43-.119-3.596-.391-1.167-.272-2.136-1.325-3.297-1.616-1.162-.29-2.574.372-3.731.067-1.157-.31-2.391-.381-3.538-.705-1.152-.324-1.807-2.312-2.95-2.655-1.142-.343-2.496-.014-3.634-.376s-2.241-.825-3.374-1.206-2.034-1.396-3.157-1.796c-1.128-.401-2.757.572-3.881.157-1.118-.415-2.188-.982-3.301-1.42-1.114-.434-2.42-.424-3.529-.877-1.103-.453-1.359-2.874-2.458-3.346-1.099-.472-2.458-.319-3.547-.81-1.09-.491-2.43-.434-3.51-.938-1.079-.511-1.682-1.974-2.752-2.503-1.07-.524-2.376-.571-3.436-1.12-1.066-.543-2.772.105-3.827-.457"/><path d="M512.046 304.827c-.558 1.044-1.147 2.082-1.722 3.121-.575 1.039-2.436 1.368-3.024 2.397-.584 1.03-.784 2.269-1.381 3.293-.602 1.02-.018 2.74-.632 3.756-.615 1.015-2.419 1.315-3.051 2.321-.632 1.005-.544 2.454-1.185 3.45s-1.699 1.735-2.353 2.721c-.654.986-.562 2.473-1.238 3.455-.671.977-2.81.963-3.49 1.93-.684.968.03 2.912-.667 3.874-.693.963-1.277 2.016-1.983 2.969-.71.954-2.619 1.025-3.338 1.969-.719.943-1.207 2.054-1.943 2.988-.732.934-1.983 1.453-2.728 2.378-.745.924-.227 2.854-.981 3.769-.758.915-1.682 1.706-2.449 2.612-.767.905-2.562.953-3.338 1.849-.78.896-1.189 2.102-1.978 2.988-.793.887-.658 2.597-1.456 3.474-.801.877-2.405 1.034-3.22 1.897-.815.867-1.691 1.668-2.519 2.525-.823.858-1.59 1.764-2.423 2.607-.832.849-2.244 1.12-3.089 1.954-.841.834-.989 2.364-1.839 3.188-.854.825-2.375.968-3.238 1.788-.863.814-1.377 1.987-2.249 2.792-.871.806-1.673 1.687-2.562 2.483-.88.796-1.634 1.735-2.527 2.521-.894.786-1.303 2.126-2.206 2.898-.902.776-2.218 1.081-3.128 1.844-.911.762-1.6 1.792-2.519 2.549-.92.753-2.567.634-3.491 1.377-.928.744-.915 2.655-1.856 3.384-.939.734-1.787 1.597-2.732 2.316-.945.72-2.015 1.301-2.969 2.011-.955.71-1.904 1.449-2.868 2.15-.964.7-2.781.238-3.75.929-.974.691-1.422 2.102-2.401 2.778-.978.677-2.612.42-3.6 1.087s-.955 2.83-1.947 3.488c-.993.658-2.155 1.082-3.158 1.73-1.002.644-2.419.658-3.427 1.292-1.012.634-2.487.515-3.504 1.134-1.017.619-1.258 2.497-2.285 3.107-1.026.61-2.713.115-3.745.715-1.031.6-1.349 2.416-2.386 3.002-1.036.586-2.583.286-3.63.863-1.045.576-1.817 1.644-2.867 2.206-1.051.563-2.323.72-3.379 1.273-1.061.552-1.938 1.444-3.003 1.982-1.065.539-1.865 1.606-2.936 2.135-1.069.529-2.564.21-3.644.724-1.075.515-2.251.816-3.335 1.319-1.085.503-2.188.95-3.278 1.44-1.089.491-1.812 1.79-2.906 2.263-1.095.477-2.092 1.2-3.191 1.66-1.099.469-2.184.985-3.292 1.441-1.104.451-2.43.378-3.543.821-1.109.439-2.343.572-3.461 1.002-1.114.426-2.183.976-3.302 1.394-1.123.412-2.092 1.234-3.219 1.634-1.128.4-2.377.456-3.51.843-1.132.387-2.482.125-3.614.494-1.133.37-1.962 1.678-3.105 2.035-1.137.361-2.26.791-3.408 1.135-1.142.349-2.559-.206-3.706.129-1.147.331-2.059 1.475-3.21 1.798-1.152.318-2.584-.379-3.741-.073-1.156.305-1.947 2.004-3.104 2.296-1.162.293-2.622-.623-3.784-.348-1.161.275-2.044 1.759-3.21 2.021-1.166.263-2.453.018-3.625.267-1.171.25-2.458-.073-3.634.164-1.171.232-2.131 1.591-3.306 1.81-1.177.22-2.598-.903-3.779-.701-1.181.207-2.353.396-3.534.585-1.181.185-2.308.701-3.489.873-1.186.172-2.275 1.015-3.461 1.174-1.186.155-2.343.624-3.529.766-1.185.142-2.39.275-3.576.404-1.191.125-2.453-.413-3.644-.305-1.19.112-2.367.447-3.557.546-1.191.095-2.406.004-3.596.077-1.195.078-2.386.267-3.581.331-1.196.061-2.42-.554-3.616-.511-1.195.047-2.366.856-3.562.881-1.195.03-2.415-1.346-3.61-1.333-1.195.013-2.381-.133-3.576-.138-1.196-.004-2.406 1.734-3.601 1.712-1.195-.021-2.405.017-3.6-.021-1.196-.039-2.324-1.725-3.519-1.777-1.196-.051-2.487 1.708-3.683 1.635-1.195-.073-2.26-1.979-3.456-2.069-1.19-.09-2.415.271-3.605.168-1.191-.108-2.492.886-3.683.761-1.19-.125-2.415-.017-3.605-.163-1.186-.142-2.338-.65-3.524-.809-1.185-.155-2.227-1.316-3.408-1.492-1.18-.177-2.299-.697-3.48-.891-1.181-.193-2.602 1.011-3.779.8-1.176-.21-2.357-.456-3.528-.683-1.171-.233-2.391-.302-3.557-.551-1.167-.245-2.198-1.148-3.364-1.411-1.167-.262-2.314-.593-3.476-.881-1.161-.28-2.434-.142-3.591-.443-1.157-.301-1.909-2.052-3.061-2.374-1.152-.319-2.732.851-3.88.516-1.147-.336-2.4-.362-3.543-.714-1.142-.353-2.304-.693-3.441-1.062-1.133-.375-2.039-1.441-3.172-1.833a326.31 326.31 0 0 1-3.388-1.2M371.466 53.227c.449 1.087.569 2.293.94 3.393.376 1.11 1.056 2.135 1.355 3.26.303 1.13 1.185 2.163 1.417 3.307.231 1.144-.983 2.535-.824 3.694.154 1.153 1.696 2.182 1.783 3.35.087 1.162.13 2.378.145 3.55.014 1.163-.473 2.36-.526 3.532-.048 1.157-.525 2.306-.641 3.473-.111 1.154.569 2.436.395 3.599-.173 1.148-1.99 2.02-2.222 3.173-.226 1.14.419 2.46.135 3.603-.279 1.125-1.176 2.087-1.508 3.217-.333 1.11.607 2.64.226 3.755-.376 1.097-2.024 1.759-2.448 2.86-.42 1.082-.81 2.168-1.278 3.25-.462 1.067-.448 2.349-.954 3.412-.501 1.048-1.629 1.792-2.174 2.84-.535 1.034-.511 2.359-1.085 3.389-.568 1.015-1.422 1.877-2.029 2.888-.597.996-1.166 2.016-1.807 3.007-.627.981-1.355 1.901-2.015 2.873-.656.963-1.307 1.93-1.996 2.888-.679.944-1.744 1.611-2.458 2.55-.704.924-1.2 1.997-1.933 2.917-.728.905-.573 2.53-1.33 3.431-.747.891-1.702 1.639-2.478 2.52-.771.873-2.41.987-3.21 1.855-.79.857-1.475 1.801-2.294 2.649-.81.844-.733 2.54-1.567 3.374-.824.825-2.757.553-3.61 1.373-.843.81-1.065 2.258-1.933 3.064-.858.791-2.338.915-3.22 1.701-.872.777-1.248 2.112-2.145 2.884-.891.762-1.701 1.62-2.612 2.373-.906.743-2.155 1.072-3.08 1.81-.916.73-1.051 2.455-1.991 3.174-.925.711-2.656.396-3.601 1.097-.94.696-1.282 2.201-2.241 2.888-.949.681-2.424.648-3.398 1.32-.964.667-2.179.967-3.162 1.62-.974.653-1.875 1.406-2.868 2.044-.988.639-1.677 1.725-2.685 2.35-.997.619-1.933 1.353-2.945 1.963-1.007.605-1.788 1.606-2.81 2.202-1.012.591-1.947 1.344-2.974 1.921-1.022.576-2.458.443-3.494 1.005-1.037.562-2.237.81-3.288 1.358-1.046.548-1.6 2.03-2.656 2.569-1.05.529-2.27.762-3.335 1.282-1.056.515-2.275.719-3.345 1.225-1.071.5-2.285.686-3.37 1.177-1.079.486-2.299.653-3.388 1.129-1.085.472-2.184.887-3.282 1.344-1.099.457-1.717 2.064-2.825 2.507-1.104.443-2.145 1.048-3.244 1.472-1.109.429-2.646-.267-3.755.138-1.113.41-2.159.978-3.273 1.373-1.118.395-2.02 1.401-3.138 1.778-1.123.381-2.097 1.224-3.22 1.587-1.127.362-2.53-.105-3.658.243-1.138.348-2.111 1.224-3.244 1.553-1.142.329-2.55-.286-3.687.024-1.148.315-2.15 1.115-3.293 1.406-1.151.295-2.173 1.081-3.321 1.358-1.151.281-2.549-.453-3.697-.195-1.156.262-2.362.257-3.518.5-1.162.243-2.077 1.654-3.234 1.878-1.167.228-2.295.667-3.457.877-1.171.209-2.337.462-3.499.652-1.171.191-2.574-1.129-3.74-.957-1.176.171-2.16 1.682-3.326 1.83-1.176.152-2.372.19-3.543.323-1.181.129-2.338.534-3.509.644-1.181.11-2.429-.515-3.606-.424-1.185.09-2.371.057-3.547.124-1.186.066-2.347.557-3.523.605-1.186.048-2.367.362-3.543.386-1.186.024-2.381.234-3.557.234-1.186 0-2.367-1.083-3.538-1.101-1.186-.024-2.372.138-3.543.09-1.186-.047-2.333-.61-3.504-.681-1.186-.072-2.469 1.229-3.635 1.134-1.19-.1-2.241-1.616-3.413-1.739-1.185-.124-2.511.938-3.677.786-1.181-.153-2.232-1.201-3.398-1.382-1.176-.181-2.516.567-3.673.357-1.171-.21-2.136-1.472-3.283-1.715-1.166-.243-2.583.624-3.725.352-1.157-.276-1.972-1.863-3.105-2.168-1.147-.305-2.492.1-3.615-.238-1.137-.344-2.232-.811-3.34-1.182-1.128-.377-2.136-1.039-3.235-1.449-1.113-.415-2.4-.372-3.48-.82-1.094-.452-2.082-1.144-3.142-1.63-1.08-.49-1.861-1.544-2.902-2.073-1.056-.533-2.343-.609-3.36-1.181-1.036-.577-1.595-1.888-2.588-2.497-1.008-.625-2.097-1.049-3.066-1.711-.978-.668-2.583-.467-3.513-1.168a74.916 74.916 0 0 1-2.753-2.23 65.248 65.248 0 0 1-2.636-2.364c-.858-.806-1.268-2.054-2.073-2.898-.81-.848-1.195-2.039-1.952-2.925-.757-.897-2.675-.892-3.374-1.826-.704-.934-.246-2.678-.887-3.65-.641-.977-1.446-1.821-2.025-2.836-.578-1.01-.602-2.268-1.113-3.321-.511-1.044-2.111-1.597-2.554-2.679-.449-1.086-.57-2.302-.945-3.407-.376-1.11-1.278-2.088-1.581-3.217-.304-1.129.077-2.435-.154-3.584-.232-1.143-.873-2.234-1.027-3.397-.154-1.154.853-2.426.766-3.594-.087-1.163-1.022-2.273-1.036-3.445-.015-1.163.29-2.331.342-3.503.048-1.158-.516-2.383-.405-3.55.111-1.154 1.244-2.197 1.417-3.36.174-1.149.256-2.302.487-3.455.226-1.139.067-2.364.357-3.507.28-1.126.969-2.15 1.306-3.275.333-1.11-.318-2.549.067-3.664.376-1.097 1.042-2.131 1.47-3.227.42-1.081 1.668-1.844 2.136-2.93.463-1.068.665-2.25 1.176-3.312.501-1.049 1.48-1.864 2.02-2.913.535-1.033.814-2.192 1.393-3.221.568-1.015 1.002-2.106 1.615-3.117.597-.996 1.296-1.94 1.932-2.93.627-.982 1.249-1.969 1.914-2.945.655-.963.66-2.388 1.349-3.346.68-.944 1.244-2.006 1.957-2.945.704-.925 1.658-1.687 2.396-2.602.728-.906 2.454-1.02 3.21-1.92.747-.892 1.22-2.012 1.996-2.893.771-.872.829-2.388 1.624-3.255.791-.858 1.658-1.668 2.473-2.516.81-.844 1.653-1.673 2.487-2.507.824-.825 2.531-.777 3.384-1.592.843-.81 1.426-1.882 2.294-2.683.858-.791.945-2.435 1.827-3.222.872-.776 2.535-.69 3.432-1.458.892-.762 1.325-2.059 2.236-2.812.906-.743 2.078-1.177 3.003-1.915.916-.73 1.374-2.054 2.314-2.774.925-.71 2.771-.243 3.716-.943.94-.696 1.032-2.54 1.991-3.227.949-.681 1.846-1.472 2.82-2.14.963-.667 2.651-.31 3.629-.962.974-.653 1.817-1.502 2.81-2.14.988-.638 2.276-.8 3.278-1.43.998-.619 1.277-2.392 2.294-3.002 1.008-.605 2.116-1.067 3.143-1.663 1.012-.591 2.598-.21 3.625-.787 1.022-.576 1.846-1.5 2.887-2.063 1.036-.562 1.576-2.04 2.627-2.588 1.046-.548 2.516-.29 3.576-.824 1.051-.53 2.145-.991 3.211-1.51 1.055-.515 2.091-1.083 3.162-1.588 1.07-.5 2.429-.381 3.509-.867 1.079-.486 1.817-1.725 2.906-2.197 1.085-.472 2.488-.21 3.587-.667 1.098-.458 2.028-1.301 3.137-1.745 1.104-.443 2.165-.962 3.268-1.386 1.109-.43 2.155-1.006 3.259-1.41 1.113-.41 2.014-1.402 3.128-1.797 1.118-.396 2.415-.296 3.533-.672 1.123-.382 2.16-1.035 3.283-1.392 1.127-.362 2.544.181 3.677-.162 1.138-.348 1.904-1.897 3.037-2.226 1.142-.328 2.251-.79 3.388-1.1 1.147-.315 2.338-.477 3.481-.772 1.152-.296 2.299-.615 3.446-.892 1.152-.28 2.588.62 3.74.363 1.157-.263 2.15-1.254 3.302-1.497 1.162-.243 2.512.453 3.668.229 1.167-.229 2.044-1.944 3.206-2.154 1.171-.21 2.385-.181 3.547-.372 1.172-.19 2.444.253 3.61.081 1.176-.171 2.444.4 3.611.253 1.176-.153 2.198-1.525 3.369-1.654 1.181-.129 2.468.82 3.639.71 1.181-.11 2.256-1.4 3.432-1.491 1.186-.091 2.424.686 3.601.614 1.185-.066 2.342-.605 3.518-.653 1.186-.047 2.382.3 3.558.277 1.185-.024 2.366-.367 3.542-.367 1.186 0 2.382-.491 3.558-.472 1.185.024 2.352.848 3.523.891 1.186.048 2.352.296 3.524.367 1.185.072 2.352.2 3.518.296 1.191.1 2.444-.539 3.615-.415 1.186.124 2.406.043 3.572.19 1.181.153 2.381.268 3.543.449 1.176.18 2.28.843 3.437 1.048 1.171.21 2.284.705 3.431.944 1.167.243 2.348.38 3.49.652 1.157.277 2.405.206 3.538.506 1.147.305 2.208.92 3.331 1.258 1.137.343 2.082 1.239 3.191 1.61 1.127.377 2.521-.009 3.615.396 1.113.415 2.246.787 3.326 1.235 1.094.452 1.855 1.639 2.916 2.125 1.079.49 2.458.357 3.499.881 1.056.534 1.673 1.86 2.69 2.431 1.036.577 2.684.124 3.678.739 1.007.624 1.426 2.14 2.395 2.797.979.667 2.565.51 3.495 1.215.939.715 1.605 1.797 2.497 2.545.901.758 1.455 1.897 2.303 2.693.858.805 2.401.953 3.206 1.796.81.849.742 2.488 1.494 3.374a58.653 58.653 0 0 1 2.174 2.726c.704.934 1.6 1.72 2.241 2.697.642.978 1.755 1.688 2.333 2.698.578 1.01 1.384 1.954 1.894 3.007.507 1.049.42 2.392.863 3.474Z"/><path d="m512.281 408.169-2.34 2.721-2.624 2.493-1.621 3.278-4.353 1.073-2.127 2.85-.361 4.375-4.489.814-.854 4.022-3.521 1.615-1.651 3.338-3.129 1.944-2.985 2.047-1.848 3.2-1.769 3.32-2.275 2.825-4.127.779-2.048 3.075-3.421 1.505-2.924 2.056-1.107 4.292-3.059 1.936-3.107 1.849-3.56 1.221-1.9 3.467-3.12 1.81-3.656 1.024-3.465 1.26-3.089 1.785-2.009 3.488-3.384 1.346-2.318 3.097-3.745.718-2.56 2.765-3.316 1.441-3.793.525-3.191 1.621-3.76.478-2.063 3.939-3.383 1.252-4.305-.809-2.29 3.686-3.615.684-3.412 1.122-3.649.516-3.022 2.121-3.668.4-2.574 3.509-3.606.594-4.246-1.488-3.239 1.617-3.254 1.617-3.297 1.522-3.721-.043-3.499.757-3.167 2.172-3.948-1.217-3.35 1.441-3.384 1.346-3.769-.68-3.094 3.127-3.866-1.428-3.47 1.032-3.611.022h-3.6l-3.528.641-3.519.817-3.514 1.088-3.702-1.673-3.485 1.802-3.548 1.29-3.663-2.576-3.547 2.206-3.596-2.094-3.572.279-3.63 1.833-3.61.197-3.528-1.509-3.606.241-3.61.056-3.485-1.347-3.798 1.871-3.552-.696-3.403-1.781-3.726.714-3.398-1.587-3.293-2.026-3.865 1.282-3.162-2.533-3.9 1.165-3.403-1.243-3.152-2.245-3.548-.516-4.048 1.321-2.893-3.02-3.884.547-3.192-1.854-3.108-2.021-4.001.701-3.282-1.501-3.803-.048-3.481-.98-3.027-2.159-3.682-.495-2.849-2.503-3.075-1.914-2.704-2.688-4.575 1.342-2.839-2.387-3.326-1.38-2.631-2.723-3.861-.374-2.362-3.153-4.107-.008-2.41-2.994-2.955-2.025-3.605-.976-2.656-2.508-2.4-2.864-3.471-1.226-2.526-2.632-4.231-.215-2.227-3.049-2.589-2.534-3.032-1.913-3.856-.899-1.287-4.112-3.398-1.492-2.776-2.258-1.899-3.252-3.87-1.023-3.336-1.677-2.459-2.628-2.323-2.757-1.663-3.398-2.781-2.271-1.687-3.32-2.993-2.073-2.53-2.516-2.782-2.302-2.179-2.835-2.998-2.14-1.725-3.207-1.523-3.341-2.912-2.24-1.754-3.14-2.912-2.279-1.499-3.312-3.152-2.144-1.625-3.212-.954-3.641-3.345-2.078-1.755-3.112-2.063-2.921-1.86-3.05-.468-3.836-2.265-2.802-1.475-3.246-2.102-2.912-2.569-2.687-.993-3.489-2.116-2.94-.838-3.536-1.413-3.265-.496-3.655-1.856-3.074-1.634-3.169-.236-3.712-2.738-2.769.328-3.884-2.81-2.788-2.18-3.036 1.042-4.06-3.311-2.716.766-3.927-.67-3.493-1.687-3.227-1.518-3.293 1.166-3.917-3.085-2.955 1.49-3.941-2.767-3.074-1.345-3.383 2.502-4.027-3.51-3.045 2.069-3.884-2.844-3.212.737-3.67-1.046-3.465-.077-3.564 1.514-3.679-1.446-3.45 1.065-3.603-1.851-3.47 1.682-3.593-1.542-3.517 1.253-3.545-.087-3.537-1.783-3.583.925-3.527-.125-3.56 1.36-3.469-1.307-3.65 2.641-3.337.236-3.521-2.091-3.798.588-3.513 1.35-3.402.047-3.584-.207-3.636 1.287-3.388.656-3.498-.347-3.703 1.976-3.217 2.56-3.055-1.996-4.131 1.49-3.303 2.486-3.012 1.408-3.279.954-3.407-.168-3.765.096-3.712 3.533-2.559.762-3.484-.039-3.798 2.507-2.85.93-3.446 1.552-3.197 1.364-3.274-.366-4.056 2.241-2.897 1.306-3.332 1.446-3.264 3.461-2.244-.617-4.337 1.827-3.084 3.682-2.039-.077-4.141 2.145-2.888 2.222-2.831 1.726-3.136 3.586-1.944.077-4.203 1.996-2.974 2.7-2.493 3.725-1.725 2.251-2.769"/></g></g><defs><clipPath id="a"><path fill="#fff" d="M0 0h536v529H0z"/></clipPath></defs></svg>