<svg width="40" height="40" fill="none" xmlns="http://www.w3.org/2000/svg"><rect width="40" height="40" rx="20" fill="#FDF1DC"/><path d="M11.979 27v-2h2v-7c0-1.383.416-2.613 1.25-3.688.833-1.074 1.916-1.779 3.25-2.112v-.7c0-.417.146-.77.437-1.063A1.446 1.446 0 0 1 19.98 10c.416 0 .77.146 1.062.438.292.291.438.645.438 1.062v.7c1.333.333 2.416 1.038 3.25 2.113.833 1.074 1.25 2.304 1.25 3.687v7h2v2h-16Zm8 3c-.55 0-1.021-.196-1.413-.587A1.926 1.926 0 0 1 17.98 28h4c0 .55-.196 1.02-.588 1.413A1.926 1.926 0 0 1 19.98 30Zm-4-5h8v-7c0-1.1-.392-2.042-1.175-2.825C22.02 14.392 21.079 14 19.979 14s-2.042.392-2.825 1.175c-.784.783-1.175 1.725-1.175 2.825v7Z" fill="#353535"/></svg>