<svg width="40" height="40" fill="none" xmlns="http://www.w3.org/2000/svg"><rect width="40" height="40" rx="20" fill="#FDF1DC"/><path d="M8.778 25.5V13.864h4.148c.905 0 1.655.164 2.25.494.595.33 1.04.78 1.335 1.352.296.568.444 1.209.444 1.92 0 .717-.15 1.36-.45 1.933-.295.568-.742 1.018-1.34 1.352-.595.33-1.343.494-2.244.494h-2.853v-1.488h2.693c.572 0 1.036-.099 1.392-.296.356-.2.618-.474.784-.818.167-.345.25-.737.25-1.176 0-.44-.083-.83-.25-1.17a1.793 1.793 0 0 0-.79-.802c-.355-.193-.825-.29-1.408-.29h-2.205V25.5H8.778Zm10.235-11.636h2.13l3.705 9.045h.136l3.705-9.045h2.13V25.5h-1.67v-8.42h-.108l-3.432 8.403h-1.386l-3.432-8.41h-.108V25.5h-1.67V13.864Z" fill="#353535"/></svg>