<svg width="50" height="50" fill="none" xmlns="http://www.w3.org/2000/svg"><rect width="50" height="50" rx="25" fill="#F5CC82"/><path d="M36.594 20.28V18c0-1.1-1.211-2-2.692-2H15.057c-1.494 0-2.692.9-2.692 2v14c0 1.1 1.198 2 2.692 2h18.845c1.48 0 2.692-.9 2.692-2v-2.28c.794-.35 1.346-.98 1.346-1.72v-6c0-.74-.551-1.37-1.346-1.72ZM35.248 22v6h-9.422v-6h9.422Zm-20.19 10V18h18.844v2h-8.076c-1.48 0-2.692.9-2.692 2v6c0 1.1 1.211 2 2.692 2h8.076v2H15.057Z" fill="#201E1B"/><path d="M29.864 26.5c1.115 0 2.02-.672 2.02-1.5s-.905-1.5-2.02-1.5-2.02.672-2.02 1.5.905 1.5 2.02 1.5Z" fill="#201E1B"/></svg>